<svg width="180" height="180" viewBox="0 0 180 180" fill="none" xmlns="http://www.w3.org/2000/svg">
  <style>
    @media (prefers-color-scheme: light) {
      .bg { fill: #1a1a1a; }
      .shoe { fill: white; }
    }
    @media (prefers-color-scheme: dark) {
      .bg { fill: white; }
      .shoe { fill: #1a1a1a; }
    }
  </style>
  <rect class="bg" width="180" height="180" rx="37" />
  <!-- Tacon icon embedded, scaled to fit -->
  <g transform="translate(18, 12) scale(0.0069, -0.0069) translate(0, -20160)">
    <path class="shoe" d="M6108 15455 c-79 -29 -193 -131 -266 -238 -47 -67 -262 -428 -262 -438 0 -5 5 -9 11 -9 5 0 7 5 4 10 -8 13 5 13 25 0 13 -8 13 -10 -2 -10 -10 0 -16 -6 -14 -12 1 -7 1 -10 -1 -5 -3 4 -13 7 -23 7 -12 0 -39 -30 -77 -87 -33 -49 -92 -137 -133 -198 -40 -60 -114 -166 -163 -235 -163 -227 -160 -222 -145 -232 10 -8 9 -9 -4 -5 -12 4 -36 -22 -91 -101 -139 -199 -282 -444 -207 -353 23 26 25 23 9 -13 -7 -16 -17 -23 -28 -19 -10 3 -9 0 3 -8 15 -9 21 -9 24 -1 2 7 8 12 13 12 5 0 3 -11 -3 -25 -6 -14 -15 -25 -20 -25 -5 0 -6 6 -2 13 5 8 2 8 -9 -2 -15 -12 -17 -11 -17 3 0 28 -15 17 -32 -26 -21 -48 -17 -65 3 -19 8 17 17 31 21 31 12 0 10 -6 -22 -70 -33 -65 -41 -96 -10 -40 26 47 25 31 -1 -25 -19 -41 -38 -64 -26 -31 3 8 1 17 -6 19 -9 3 -7 14 5 40 10 21 14 37 10 37 -4 0 -14 -17 -24 -38 -9 -20 -35 -80 -58 -132 -46 -103 -187 -519 -219 -646 -63 -248 -91 -461 -91 -690 0 -191 10 -256 55 -349 55 -112 101 -151 380 -319 88 -53 167 -101 175 -106 61 -37 202 -120 205 -120 2 0 55 -30 117 -66 62 -37 147 -85 188 -107 131 -71 860 -507 993 -594 70 -46 125 -87 123 -92 -8 -13 -130 7 -211 34 -91 30 -178 73 -345 170 -69 40 -235 133 -370 208 -135 74 -301 167 -368 206 -68 39 -125 71 -127 71 -1 0 -49 29 -106 63 -57 35 -133 80 -169 99 -36 20 -121 71 -190 113 -156 97 -177 108 -195 101 -22 -8 -19 -25 18 -113 76 -176 262 -789 341 -1123 63 -265 130 -611 166 -860 12 -80 23 -156 26 -170 22 -119 83 -913 100 -1300 4 -85 8 -177 9 -205 2 -27 6 -230 9 -450 4 -220 9 -431 11 -470 3 -38 8 -356 11 -705 4 -349 11 -643 16 -652 8 -16 32 -18 294 -18 215 1 286 4 289 13 2 7 6 761 9 1677 3 916 8 1706 11 1755 25 451 40 575 91 785 32 132 100 275 154 324 88 80 197 117 345 117 211 0 410 -65 691 -227 466 -267 1052 -853 1455 -1454 213 -317 374 -581 507 -830 103 -193 519 -932 599 -1063 189 -311 432 -590 668 -766 141 -105 382 -226 548 -276 126 -37 147 -41 147 -25 0 6 4 10 10 10 5 0 7 -7 4 -15 -4 -8 -2 -15 3 -15 4 0 62 -11 128 -25 119 -24 217 -36 470 -55 72 -6 144 -13 160 -15 50 -7 564 -20 820 -20 236 0 804 14 815 20 3 1 68 6 145 9 77 4 154 9 170 11 17 2 77 7 135 10 58 3 137 8 175 10 136 10 351 26 405 30 30 3 164 14 297 25 365 30 383 33 383 50 0 6 -11 5 -26 0 -16 -7 -23 -7 -19 0 8 13 -1 13 -24 1 -13 -7 -18 -6 -18 4 0 8 4 12 8 9 4 -2 11 1 14 7 4 5 13 8 21 5 8 -3 14 0 14 7 0 8 4 6 10 -3 6 -9 10 -10 10 -3 0 6 8 11 18 11 9 0 29 2 45 5 17 4 27 1 27 -6 0 -8 3 -7 9 2 6 9 10 10 16 2 4 -7 12 -8 18 -3 7 4 19 8 27 7 8 0 19 4 23 10 5 6 7 3 4 -7 -3 -9 -3 -19 1 -21 4 -2 1 -2 -5 -1 -7 2 -13 -1 -13 -5 0 -5 -14 -8 -32 -7 -18 0 -32 -4 -34 -12 -1 -7 -1 -9 2 -4 2 4 19 6 37 4 79 -9 821 92 1027 140 114 26 286 77 335 98 22 10 60 25 85 35 52 19 156 77 185 102 129 114 165 322 73 421 -76 80 -231 132 -508 171 -143 20 -177 21 -177 6 0 -7 5 -11 11 -9 7 3 19 -1 29 -8 15 -11 7 -13 -51 -13 -37 1 -73 4 -80 9 -8 4 -10 2 -6 -7 6 -17 84 -28 84 -12 0 6 3 6 8 -1 4 -6 73 -21 153 -33 184 -27 369 -74 433 -110 86 -48 111 -142 66 -246 -33 -77 -83 -123 -210 -192 -156 -86 -575 -186 -950 -228 -80 -9 -158 -18 -175 -20 -65 -8 -122 -15 -175 -20 -30 -4 -120 -15 -200 -26 -80 -10 -163 -19 -184 -19 -39 1 -281 -17 -341 -25 -16 -2 -74 -7 -127 -10 -54 -4 -98 -11 -98 -16 0 -8 20 -24 32 -24 3 0 10 -4 15 -9 5 -5 3 -6 -4 -2 -7 4 -13 3 -13 -2 0 -5 -20 -8 -45 -8 -25 1 -47 -3 -50 -9 -2 -5 -4 -3 -4 5 4 53 6 52 -98 45 -105 -6 -330 -22 -428 -30 -66 -5 -354 -21 -535 -30 -63 -3 -157 -8 -207 -11 -58 -4 -93 -3 -93 3 0 5 24 41 53 79 30 38 95 131 146 206 51 75 98 141 104 147 7 5 87 12 177 16 91 3 197 8 235 10 39 3 122 7 185 11 63 4 117 9 120 11 3 3 -47 3 -110 1 -127 -5 -140 -3 -140 18 0 9 13 15 38 16 20 1 51 3 67 4 17 2 63 5 102 7 l73 4 -6 -26 -5 -26 13 26 13 27 20 -21 c17 -17 17 -19 3 -14 -10 3 -20 2 -23 -4 -6 -9 159 -6 285 5 30 3 89 8 130 11 41 3 93 7 115 10 22 2 74 7 115 10 173 12 516 43 615 55 44 6 81 10 82 10 2 0 3 5 3 11 0 5 -4 7 -10 4 -6 -4 -7 1 -3 11 6 16 8 15 16 -4 7 -15 16 -20 31 -17 12 2 50 7 86 10 36 3 76 8 90 10 37 5 107 13 180 20 36 3 110 12 165 20 55 8 152 22 215 30 182 26 310 53 351 77 46 26 61 69 33 99 -30 33 -146 60 -319 74 -44 3 -92 8 -107 11 -32 5 -35 -1 -13 -22 9 -9 20 -12 27 -7 20 12 58 15 58 4 0 -5 16 -8 35 -7 20 2 38 -1 41 -6 3 -4 10 -6 15 -3 5 4 9 1 9 -5 0 -7 6 -8 17 -2 17 10 63 -4 63 -19 0 -11 -93 1 -109 14 -12 9 -13 9 -7 -1 6 -9 -3 -11 -36 -8 -24 3 -84 8 -133 11 -50 4 -95 11 -101 16 -6 5 -15 4 -21 -2 -7 -7 -13 -8 -17 0 -4 5 -13 8 -21 4 -8 -3 -15 -1 -15 5 0 6 11 9 25 8 13 -2 24 0 23 3 -2 18 4 21 18 7 12 -13 18 -13 29 -3 7 6 12 13 10 15 -12 13 -359 29 -660 31 -148 1 -286 4 -305 6 -19 2 -338 6 -709 9 -371 4 -676 8 -679 10 -2 2 9 23 24 45 l27 41 228 0 c126 0 229 4 229 8 0 5 -14 6 -31 4 -21 -3 -30 -1 -25 6 3 6 2 14 -4 17 -6 4 -9 1 -8 -7 2 -9 -9 -13 -36 -13 -33 0 -40 3 -43 23 -1 13 1 21 6 17 5 -3 12 -1 16 5 5 8 -202 17 -252 11 -26 -4 -11 28 61 137 219 327 490 632 561 632 9 0 19 -9 22 -20 3 -11 8 -18 12 -16 3 2 3 -75 0 -172 -6 -189 -17 -240 -94 -467 l-30 -90 -130 -5 c-101 -4 -131 -8 -133 -19 -2 -10 1 -12 10 -5 15 12 57 12 76 1 7 -5 12 -3 12 5 0 9 3 9 8 2 4 -6 18 -16 32 -23 23 -11 23 -11 7 2 -12 10 -14 17 -8 22 6 3 11 1 11 -6 0 -7 10 -9 24 -7 19 4 23 1 18 -11 -5 -14 -4 -14 11 -2 10 8 20 11 24 7 3 -3 1 -6 -6 -6 -7 0 -9 -5 -5 -12 4 -6 3 -8 -4 -4 -6 3 -13 2 -16 -3 -6 -10 142 -17 497 -26 178 -4 217 -3 217 8 0 9 -11 13 -30 12 -20 -1 -29 2 -27 10 3 6 -3 12 -14 12 -12 1 -16 -3 -12 -15 4 -13 3 -14 -5 -3 -5 7 -15 11 -21 7 -6 -4 -9 -1 -5 7 3 9 20 15 42 15 64 0 73 2 69 10 -3 4 -85 8 -184 10 -98 2 -181 7 -185 10 -4 4 7 54 23 111 16 57 43 172 61 255 26 126 32 174 32 291 2 304 -61 389 -368 499 -50 18 -167 61 -260 95 -92 34 -193 68 -224 76 -73 19 -202 19 -277 0 -204 -54 -468 -286 -781 -690 -124 -160 -401 -545 -411 -573 -5 -13 -24 -14 -132 -8 -432 22 -799 130 -1081 316 -315 209 -460 395 -856 1097 -134 238 -248 433 -387 661 -88 145 -270 412 -280 412 -7 0 -6 -4 3 -10 10 -6 11 -10 3 -10 -7 0 -13 -4 -13 -10 0 -5 7 -7 16 -3 14 5 14 3 3 -15 -13 -20 -13 -20 -26 -1 -8 10 -13 27 -11 36 2 11 -2 17 -10 15 -18 -3 -10 20 8 26 7 3 10 0 6 -7 -4 -6 -1 -11 9 -11 14 0 14 3 -2 28 -110 174 -442 601 -610 785 l-99 109 23 125 c72 392 77 448 77 863 1 343 -2 402 -21 545 -36 258 -106 576 -169 764 -28 84 -133 350 -144 366 -3 6 -15 32 -24 58 -11 30 -23 46 -31 43 -7 -2 -27 5 -45 15 -18 11 -34 18 -36 16 -2 -2 16 -41 41 -86 24 -46 47 -92 50 -102 4 -11 11 -19 16 -19 6 0 8 -4 4 -10 -3 -5 5 -35 18 -67 33 -77 118 -341 156 -478 41 -151 66 -284 97 -530 24 -183 28 -246 28 -490 1 -251 -2 -302 -27 -490 -30 -225 -65 -446 -72 -453 -2 -2 -41 35 -87 83 -78 83 -279 265 -292 265 -4 0 -4 -11 -2 -24 4 -20 1 -23 -16 -18 -12 3 -15 7 -8 12 6 4 13 27 16 51 2 24 14 116 26 204 25 189 30 575 9 765 -33 304 -95 572 -201 860 -21 58 -42 116 -45 130 -13 43 -92 214 -138 298 l-44 80 61 11 c33 7 93 20 131 31 39 10 96 23 128 30 59 12 73 30 45 58 -18 18 -50 15 -202 -22 -78 -19 -156 -37 -173 -41 -18 -4 -33 -11 -33 -17 0 -6 7 -7 16 -4 8 3 12 2 9 -4 -3 -6 1 -10 9 -10 9 0 16 -4 16 -10 0 -22 -71 -49 -109 -41 -22 4 -38 13 -37 19 2 6 -5 12 -14 14 -11 2 -23 17 -31 39 -8 20 -18 39 -22 43 -5 3 -12 20 -16 37 -4 18 -19 55 -33 83 -102 203 -279 461 -417 609 -55 59 -156 127 -213 143 -49 14 -141 11 -180 -6z"/>
  </g>
</svg>