<?xml version="1.0" standalone="no"?>
<!DOCTYPE svg PUBLIC "-//W3C//DTD SVG 20010904//EN"
 "http://www.w3.org/TR/2001/REC-SVG-20010904/DTD/svg10.dtd">
<svg version="1.0" xmlns="http://www.w3.org/2000/svg"
 width="2092.000000pt" height="2016.000000pt" viewBox="0 0 2092.000000 2016.000000"
 preserveAspectRatio="xMidYMid meet">

<g transform="translate(0.000000,2016.000000) scale(0.100000,-0.100000)"
fill="#000000" stroke="none">
<path d="M6108 15455 c-79 -29 -193 -131 -266 -238 -47 -67 -262 -428 -262
-438 0 -5 5 -9 11 -9 5 0 7 5 4 10 -8 13 5 13 25 0 13 -8 13 -10 -2 -10 -10 0
-16 -6 -14 -12 1 -7 1 -10 -1 -5 -3 4 -13 7 -23 7 -12 0 -39 -30 -77 -87 -33
-49 -92 -137 -133 -198 -40 -60 -114 -166 -163 -235 -163 -227 -160 -222 -145
-232 10 -8 9 -9 -4 -5 -12 4 -36 -22 -91 -101 -139 -199 -282 -444 -207 -353
23 26 25 23 9 -13 -7 -16 -17 -23 -28 -19 -10 3 -9 0 3 -8 15 -9 21 -9 24 -1
2 7 8 12 13 12 5 0 3 -11 -3 -25 -6 -14 -15 -25 -20 -25 -5 0 -6 6 -2 13 5 8
2 8 -9 -2 -15 -12 -17 -11 -17 3 0 28 -15 17 -32 -26 -21 -48 -17 -65 3 -19 8
17 17 31 21 31 12 0 10 -6 -22 -70 -33 -65 -41 -96 -10 -40 26 47 25 31 -1
-25 -19 -41 -38 -64 -26 -31 3 8 1 17 -6 19 -9 3 -7 14 5 40 10 21 14 37 10
37 -4 0 -14 -17 -24 -38 -9 -20 -35 -80 -58 -132 -46 -103 -187 -519 -219
-646 -63 -248 -91 -461 -91 -690 0 -191 10 -256 55 -349 55 -112 101 -151 380
-319 88 -53 167 -101 175 -106 61 -37 202 -120 205 -120 2 0 55 -30 117 -66
62 -37 147 -85 188 -107 131 -71 860 -507 993 -594 70 -46 125 -87 123 -92 -8
-13 -130 7 -211 34 -91 30 -178 73 -345 170 -69 40 -235 133 -370 208 -135 74
-301 167 -368 206 -68 39 -125 71 -127 71 -1 0 -49 29 -106 63 -57 35 -133 80
-169 99 -36 20 -121 71 -190 113 -156 97 -177 108 -195 101 -22 -8 -19 -25 18
-113 76 -176 262 -789 341 -1123 63 -265 130 -611 166 -860 12 -80 23 -156 26
-170 22 -119 83 -913 100 -1300 4 -85 8 -177 9 -205 2 -27 6 -230 9 -450 4
-220 9 -431 11 -470 3 -38 8 -356 11 -705 4 -349 11 -643 16 -652 8 -16 32
-18 294 -18 215 1 286 4 289 13 2 7 6 761 9 1677 3 916 8 1706 11 1755 25 451
40 575 91 785 32 132 100 275 154 324 88 80 197 117 345 117 211 0 410 -65
691 -227 466 -267 1052 -853 1455 -1454 213 -317 374 -581 507 -830 103 -193
519 -932 599 -1063 189 -311 432 -590 668 -766 141 -105 382 -226 548 -276
126 -37 147 -41 147 -25 0 6 4 10 10 10 5 0 7 -7 4 -15 -4 -8 -2 -15 3 -15 4
0 62 -11 128 -25 119 -24 217 -36 470 -55 72 -6 144 -13 160 -15 50 -7 564
-20 820 -20 236 0 804 14 815 20 3 1 68 6 145 9 77 4 154 9 170 11 17 2 77 7
135 10 58 3 137 8 175 10 136 10 351 26 405 30 30 3 164 14 297 25 365 30 383
33 383 50 0 6 -11 5 -26 0 -16 -7 -23 -7 -19 0 8 13 -1 13 -24 1 -13 -7 -18
-6 -18 4 0 8 4 12 8 9 4 -2 11 1 14 7 4 5 13 8 21 5 8 -3 14 0 14 7 0 8 4 6
10 -3 6 -9 10 -10 10 -3 0 6 8 11 18 11 9 0 29 2 45 5 17 4 27 1 27 -6 0 -8 3
-7 9 2 6 9 10 10 16 2 4 -7 12 -8 18 -3 7 4 19 8 27 7 8 0 19 4 23 10 5 6 7 3
4 -7 -3 -9 -3 -19 1 -21 4 -2 1 -2 -5 -1 -7 2 -13 -1 -13 -5 0 -5 -14 -8 -32
-7 -18 0 -32 -4 -34 -12 -1 -7 -1 -9 2 -4 2 4 19 6 37 4 79 -9 821 92 1027
140 114 26 286 77 335 98 22 10 60 25 85 35 52 19 156 77 185 102 129 114 165
322 73 421 -76 80 -231 132 -508 171 -143 20 -177 21 -177 6 0 -7 5 -11 11 -9
7 3 19 -1 29 -8 15 -11 7 -13 -51 -13 -37 1 -73 4 -80 9 -8 4 -10 2 -6 -7 6
-17 84 -28 84 -12 0 6 3 6 8 -1 4 -6 73 -21 153 -33 184 -27 369 -74 433 -110
86 -48 111 -142 66 -246 -33 -77 -83 -123 -210 -192 -156 -86 -575 -186 -950
-228 -80 -9 -158 -18 -175 -20 -65 -8 -122 -15 -175 -20 -30 -4 -120 -15 -200
-26 -80 -10 -163 -19 -184 -19 -39 1 -281 -17 -341 -25 -16 -2 -74 -7 -127
-10 -54 -4 -98 -11 -98 -16 0 -8 20 -24 32 -24 3 0 10 -4 15 -9 5 -5 3 -6 -4
-2 -7 4 -13 3 -13 -2 0 -5 -20 -8 -45 -8 -25 1 -47 -3 -50 -9 -2 -5 -4 -3 -4
5 4 53 6 52 -98 45 -105 -6 -330 -22 -428 -30 -66 -5 -354 -21 -535 -30 -63
-3 -157 -8 -207 -11 -58 -4 -93 -3 -93 3 0 5 24 41 53 79 30 38 95 131 146
206 51 75 98 141 104 147 7 5 87 12 177 16 91 3 197 8 235 10 39 3 122 7 185
11 63 4 117 9 120 11 3 3 -47 3 -110 1 -127 -5 -140 -3 -140 18 0 9 13 15 38
16 20 1 51 3 67 4 17 2 63 5 102 7 l73 4 -6 -26 -5 -26 13 26 13 27 20 -21
c17 -17 17 -19 3 -14 -10 3 -20 2 -23 -4 -6 -9 159 -6 285 5 30 3 89 8 130 11
41 3 93 7 115 10 22 2 74 7 115 10 173 12 516 43 615 55 44 6 81 10 82 10 2 0
3 5 3 11 0 5 -4 7 -10 4 -6 -4 -7 1 -3 11 6 16 8 15 16 -4 7 -15 16 -20 31
-17 12 2 50 7 86 10 36 3 76 8 90 10 37 5 107 13 180 20 36 3 110 12 165 20
55 8 152 22 215 30 182 26 310 53 351 77 46 26 61 69 33 99 -30 33 -146 60
-319 74 -44 3 -92 8 -107 11 -32 5 -35 -1 -13 -22 9 -9 20 -12 27 -7 20 12 58
15 58 4 0 -5 16 -8 35 -7 20 2 38 -1 41 -6 3 -4 10 -6 15 -3 5 4 9 1 9 -5 0
-7 6 -8 17 -2 17 10 63 -4 63 -19 0 -11 -93 1 -109 14 -12 9 -13 9 -7 -1 6 -9
-3 -11 -36 -8 -24 3 -84 8 -133 11 -50 4 -95 11 -101 16 -6 5 -15 4 -21 -2 -7
-7 -13 -8 -17 0 -4 5 -13 8 -21 4 -8 -3 -15 -1 -15 5 0 6 11 9 25 8 13 -2 24
0 23 3 -2 18 4 21 18 7 12 -13 18 -13 29 -3 7 6 12 13 10 15 -12 13 -359 29
-660 31 -148 1 -286 4 -305 6 -19 2 -338 6 -709 9 -371 4 -676 8 -679 10 -2 2
9 23 24 45 l27 41 228 0 c126 0 229 4 229 8 0 5 -14 6 -31 4 -21 -3 -30 -1
-25 6 3 6 2 14 -4 17 -6 4 -9 1 -8 -7 2 -9 -9 -13 -36 -13 -33 0 -40 3 -43 23
-1 13 1 21 6 17 5 -3 12 -1 16 5 5 8 -202 17 -252 11 -26 -4 -11 28 61 137
219 327 490 632 561 632 9 0 19 -9 22 -20 3 -11 8 -18 12 -16 3 2 3 -75 0
-172 -6 -189 -17 -240 -94 -467 l-30 -90 -130 -5 c-101 -4 -131 -8 -133 -19
-2 -10 1 -12 10 -5 15 12 57 12 76 1 7 -5 12 -3 12 5 0 9 3 9 8 2 4 -6 18 -16
32 -23 23 -11 23 -11 7 2 -12 10 -14 17 -8 22 6 3 11 1 11 -6 0 -7 10 -9 24
-7 19 4 23 1 18 -11 -5 -14 -4 -14 11 -2 10 8 20 11 24 7 3 -3 1 -6 -6 -6 -7
0 -9 -5 -5 -12 4 -6 3 -8 -4 -4 -6 3 -13 2 -16 -3 -6 -10 142 -17 497 -26 178
-4 217 -3 217 8 0 9 -11 13 -30 12 -20 -1 -29 2 -27 10 3 6 -3 12 -14 12 -12
1 -16 -3 -12 -15 4 -13 3 -14 -5 -3 -5 7 -15 11 -21 7 -6 -4 -9 -1 -5 7 3 9
20 15 42 15 64 0 73 2 69 10 -3 4 -85 8 -184 10 -98 2 -181 7 -185 10 -4 4 7
54 23 111 16 57 43 172 61 255 26 126 32 174 32 291 2 304 -61 389 -368 499
-50 18 -167 61 -260 95 -92 34 -193 68 -224 76 -73 19 -202 19 -277 0 -204
-54 -468 -286 -781 -690 -124 -160 -401 -545 -411 -573 -5 -13 -24 -14 -132
-8 -432 22 -799 130 -1081 316 -315 209 -460 395 -856 1097 -134 238 -248 433
-387 661 -88 145 -270 412 -280 412 -7 0 -6 -4 3 -10 10 -6 11 -10 3 -10 -7 0
-13 -4 -13 -10 0 -5 7 -7 16 -3 14 5 14 3 3 -15 -13 -20 -13 -20 -26 -1 -8 10
-13 27 -11 36 2 11 -2 17 -10 15 -18 -3 -10 20 8 26 7 3 10 0 6 -7 -4 -6 -1
-11 9 -11 14 0 14 3 -2 28 -110 174 -442 601 -610 785 l-99 109 23 125 c72
392 77 448 77 863 1 343 -2 402 -21 545 -36 258 -106 576 -169 764 -28 84
-133 350 -144 366 -3 6 -15 32 -24 58 -11 30 -23 46 -31 43 -7 -2 -27 5 -45
15 -18 11 -34 18 -36 16 -2 -2 16 -41 41 -86 24 -46 47 -92 50 -102 4 -11 11
-19 16 -19 6 0 8 -4 4 -10 -3 -5 5 -35 18 -67 33 -77 118 -341 156 -478 41
-151 66 -284 97 -530 24 -183 28 -246 28 -490 1 -251 -2 -302 -27 -490 -30
-225 -65 -446 -72 -453 -2 -2 -41 35 -87 83 -78 83 -279 265 -292 265 -4 0 -4
-11 -2 -24 4 -20 1 -23 -16 -18 -12 3 -15 7 -8 12 6 4 13 27 16 51 2 24 14
116 26 204 25 189 30 575 9 765 -33 304 -95 572 -201 860 -21 58 -42 116 -45
130 -13 43 -92 214 -138 298 l-44 80 61 11 c33 7 93 20 131 31 39 10 96 23
128 30 59 12 73 30 45 58 -18 18 -50 15 -202 -22 -78 -19 -156 -37 -173 -41
-18 -4 -33 -11 -33 -17 0 -6 7 -7 16 -4 8 3 12 2 9 -4 -3 -6 1 -10 9 -10 9 0
16 -5 16 -11 0 -6 -9 -9 -20 -6 -10 3 -21 1 -24 -4 -2 -5 -3 -4 -2 3 3 15 -17
38 -33 38 -6 0 -11 -5 -11 -11 0 -5 4 -8 9 -5 5 3 12 -1 15 -10 8 -21 8 -21
-8 -27 -16 -6 -60 26 -50 36 4 3 13 0 21 -8 8 -8 19 -15 24 -15 5 0 0 9 -10
19 -18 18 -23 18 -82 5 -35 -8 -136 -30 -224 -50 -88 -19 -194 -43 -235 -51
-41 -9 -78 -21 -82 -27 -6 -8 -8 -8 -8 0 0 6 -10 9 -23 7 -42 -8 -168 101
-255 222 -40 55 -70 116 -60 120 21 6 139 31 333 70 99 20 232 49 295 65 63
16 160 38 215 50 55 12 165 36 245 55 80 19 164 37 188 41 35 5 42 10 42 29 0
13 3 30 6 39 5 12 0 14 -28 10 -33 -6 -36 -3 -99 76 -82 105 -221 271 -318
380 -41 47 -77 87 -78 89 -2 2 -6 2 -9 -2 -4 -3 1 -13 9 -22 9 -8 14 -23 11
-33 -4 -13 -3 -14 4 -4 7 11 12 10 26 -4 9 -9 15 -23 12 -31 -3 -8 -2 -12 2
-10 4 3 14 -2 22 -11 13 -14 12 -15 -3 -9 -9 3 -17 2 -17 -4 0 -6 -20 10 -45
37 -34 35 -44 53 -39 68 4 15 3 17 -4 7 -12 -17 -24 1 -16 24 5 13 8 14 15 3
7 -10 9 -9 9 4 0 34 -857 879 -1129 1114 -249 215 -287 247 -305 260 -19 13
-18 15 12 82 38 82 42 144 12 202 -22 44 -68 82 -119 99 -45 15 -137 13 -183
-4z m154 -65 c20 -6 50 -26 67 -46 62 -70 39 -134 -131 -364 -63 -85 -136
-190 -162 -233 -182 -301 -239 -470 -238 -707 1 -271 78 -531 272 -922 68
-136 102 -198 274 -503 256 -455 444 -846 530 -1105 44 -135 120 -477 146
-665 29 -210 48 -534 45 -790 -3 -245 -9 -315 -24 -315 -3 0 -47 48 -96 106
-165 194 -333 334 -605 501 -85 53 -182 112 -215 133 -56 34 -248 148 -510
302 -60 35 -168 97 -240 138 -71 40 -201 115 -288 167 -87 51 -160 93 -162 93
-6 0 -290 172 -344 209 -138 94 -194 172 -221 304 -29 143 -15 408 36 667 63
318 115 485 276 885 65 161 196 388 361 622 263 375 324 463 438 633 69 102
147 221 175 265 95 148 179 284 229 367 64 107 183 229 245 251 54 19 92 20
142 7z m-235 -20 c1 -11 -2 -22 -8 -25 -5 -3 -6 1 -3 10 5 11 2 14 -12 9 -17
-6 -17 -5 1 9 11 9 20 17 20 17 1 0 1 -9 2 -20z m-122 -120 c3 -5 -1 -10 -10
-10 -9 0 -13 5 -10 10 3 6 8 10 10 10 2 0 7 -4 10 -10z m389 -197 c4 -9 1 -21
-5 -27 -9 -8 -10 -8 -5 2 4 6 2 12 -3 12 -6 0 -11 7 -11 15 0 20 16 19 24 -2z
m-21 -38 c4 -8 1 -17 -6 -21 -7 -4 -9 -4 -5 1 4 4 3 14 -3 22 -7 8 -8 13 -1
13 5 0 12 -7 15 -15z m187 -91 c69 -59 175 -152 235 -208 123 -112 260 -236
318 -285 20 -18 37 -28 37 -23 0 6 -4 13 -9 17 -10 5 -11 45 -2 45 14 0 91
-87 91 -103 0 -10 -5 -15 -10 -12 -6 4 -7 11 -4 17 4 7 2 8 -5 4 -6 -4 -18 0
-27 9 -9 9 -19 13 -23 9 -3 -3 100 -110 230 -238 331 -324 555 -566 778 -836
84 -102 132 -152 139 -144 4 4 1 9 -5 11 -15 5 -17 29 -4 38 11 6 46 -26 87
-80 17 -23 21 -33 11 -29 -10 4 -21 -4 -31 -23 -8 -15 -15 -22 -16 -15 0 6 -5
12 -10 12 -6 0 -9 -5 -8 -11 2 -6 -3 -14 -11 -17 -9 -3 -11 0 -6 9 5 8 0 6
-12 -3 -20 -18 -53 -24 -53 -10 1 17 18 33 41 36 34 5 59 16 59 28 0 7 -4 7
-12 1 -7 -6 -65 -20 -128 -33 -63 -12 -160 -33 -215 -46 -55 -13 -108 -24
-117 -24 -9 0 -38 26 -63 58 -124 152 -913 964 -966 992 -19 11 -20 10 -8 -12
7 -13 12 -27 10 -33 -1 -5 1 -7 5 -3 4 5 12 -2 19 -15 6 -12 17 -21 23 -20 6
2 9 -3 6 -11 -4 -11 -10 -9 -28 8 -12 11 -32 28 -44 36 -12 8 -20 21 -17 28 2
7 0 10 -5 7 -13 -8 -63 42 -55 55 4 6 -1 7 -11 3 -13 -5 -16 -2 -12 9 8 19
-10 38 -28 31 -10 -4 -12 0 -8 11 7 19 7 19 83 -51 20 -18 38 -30 40 -27 8 7
-90 103 -294 289 -104 95 -224 204 -264 242 l-75 70 23 39 c21 36 64 98 169
244 23 33 46 60 50 60 4 0 64 -48 132 -106z m-782 -24 c-7 -11 -17 -20 -22
-20 -5 0 -1 9 9 20 10 11 20 20 22 20 2 0 -2 -9 -9 -20z m-22 -45 c-11 -8 -15
-19 -10 -27 4 -7 4 -10 -1 -6 -4 4 -14 0 -22 -10 -12 -15 -13 -14 -2 8 16 35
30 50 43 50 6 0 3 -7 -8 -15z m1001 -47 c-1 -10 -8 -18 -15 -18 -8 0 -12 6 -9
14 7 17 -17 41 -32 32 -5 -3 -7 3 -4 14 5 19 6 19 33 -3 15 -12 27 -30 27 -39z
m56 -31 c32 -31 33 -35 16 -45 -11 -7 -20 -8 -24 -2 -3 6 -1 10 5 10 6 0 8 5
5 10 -4 6 -11 8 -16 5 -5 -4 -19 1 -31 9 -20 14 -20 16 -4 16 15 0 16 3 6 15
-24 29 8 15 43 -18z m-595 -214 c36 -32 100 -89 141 -127 42 -38 96 -87 121
-110 174 -157 534 -503 740 -712 234 -237 550 -582 562 -614 4 -12 -3 -15 -32
-16 -21 -1 -149 -27 -286 -57 -137 -31 -289 -64 -338 -74 -54 -11 -91 -23 -94
-32 -6 -17 0 -27 98 -168 90 -129 188 -230 254 -262 l48 -24 96 22 c210 46
571 121 583 121 15 0 112 -176 147 -265 11 -27 31 -75 44 -105 84 -189 145
-394 197 -655 58 -292 65 -359 65 -650 0 -195 -5 -307 -17 -403 -18 -145 -26
-182 -36 -182 -3 0 -42 30 -86 66 -44 36 -111 89 -150 118 -113 86 -636 433
-820 545 -140 85 -231 142 -307 192 -5 3 -26 74 -48 157 -101 385 -291 794
-697 1498 -93 161 -284 548 -323 654 -17 46 -47 143 -66 215 -31 114 -36 149
-41 285 -6 176 12 291 66 431 41 106 92 209 104 209 5 0 39 -26 75 -57z m863
-66 c-9 -9 -14 -8 -21 3 -5 8 -7 17 -4 19 3 3 9 -1 14 -9 8 -12 10 -11 11 5 0
12 3 15 6 7 3 -8 0 -19 -6 -25z m49 -21 c0 -3 -9 -6 -19 -6 -14 0 -18 5 -14
20 4 16 7 17 19 5 8 -7 14 -16 14 -19z m-749 -19 c-10 -9 -11 -8 -5 6 3 10 9
15 12 12 3 -3 0 -11 -7 -18z m749 -1 c0 -3 -4 -8 -10 -11 -5 -3 -10 -1 -10 4
0 6 5 11 10 11 6 0 10 -2 10 -4z m-696 -22 c5 -14 4 -15 -9 -4 -17 14 -19 20
-6 20 5 0 12 -7 15 -16z m49 -58 c-3 -4 -9 -2 -14 5 -13 22 -11 31 5 17 8 -7
12 -17 9 -22z m36 -20 c8 -10 9 -16 1 -21 -6 -4 -10 -3 -9 2 3 20 -2 25 -16
13 -14 -12 -22 0 -8 13 10 11 19 8 32 -7z m1064 -309 c84 -83 112 -119 100
-131 -12 -12 -22 -5 -108 79 -72 71 -85 89 -80 108 5 17 4 18 -4 7 -11 -16
-27 -8 -16 9 11 19 22 12 108 -72z m-1633 -53 c0 -8 -5 -12 -10 -9 -6 4 -8 11
-5 16 9 14 15 11 15 -7z m-757 -9 c-3 -9 -8 -14 -10 -11 -3 3 -2 9 2 15 9 16
15 13 8 -4z m-23 -5 c0 -5 -4 -10 -10 -10 -5 0 -10 5 -10 10 0 6 5 10 10 10 6
0 10 -4 10 -10z m-20 -21 c0 -5 4 -7 10 -4 6 3 7 -1 4 -9 -8 -20 -7 -20 -29 4
-16 18 -16 20 -2 20 10 0 17 -5 17 -11z m810 -27 c0 -7 -4 -11 -9 -8 -5 3 -11
-1 -15 -9 -3 -9 0 -15 8 -15 8 0 15 -18 19 -47 4 -27 8 -57 11 -69 2 -13 -1
-21 -9 -21 -8 0 -11 7 -7 15 3 10 1 13 -6 8 -7 -4 -9 1 -7 15 3 13 0 28 -6 36
-9 10 -8 17 2 30 10 11 10 14 2 9 -12 -7 -19 14 -13 39 2 6 4 19 6 30 1 11 3
22 3 25 2 9 21 -25 21 -38z m-830 3 c0 -8 -4 -15 -10 -15 -5 0 -10 7 -10 15 0
8 5 15 10 15 6 0 10 -7 10 -15z m2046 -201 c29 -28 30 -32 14 -42 -14 -9 -23
-5 -46 19 -15 16 -22 29 -15 29 7 0 9 5 6 10 -4 6 -10 8 -14 6 -4 -3 -8 4 -8
15 -2 23 7 18 63 -37z m702 -50 c-4 -3 -12 5 -18 18 -12 22 -12 22 6 6 10 -10
15 -20 12 -24z m-592 -60 c65 -67 72 -78 54 -89 -6 -3 -7 1 -4 10 5 11 2 14
-10 9 -17 -7 -96 63 -96 85 0 7 -5 9 -12 5 -8 -5 -9 -2 -5 9 3 10 2 17 -4 17
-6 0 -7 5 -4 10 10 16 13 14 81 -56z m-1208 -211 c-11 -13 -28 -9 -28 7 0 5 7
7 15 4 13 -5 13 -3 0 22 -8 16 -15 34 -15 39 1 6 9 -6 20 -25 13 -25 15 -39 8
-47z m-1233 30 c-5 -10 -9 -21 -9 -25 -2 -12 -16 -21 -16 -10 0 16 22 63 28
57 2 -2 1 -12 -3 -22z m1250 -62 c-8 -14 -25 -14 -25 0 0 5 5 7 10 4 6 -3 10
-1 10 6 0 7 3 10 6 6 3 -3 3 -10 -1 -16z m1428 -21 c4 0 15 -4 25 -9 9 -6 13
-11 9 -11 -4 0 4 -11 18 -25 30 -30 30 -31 9 -39 -11 -4 -15 -2 -11 8 4 11 1
13 -10 9 -13 -5 -15 -2 -10 11 4 10 3 15 -3 11 -6 -4 -24 8 -40 25 -30 33 -38
46 -20 35 6 -3 10 0 11 7 0 7 4 5 8 -5 4 -10 10 -18 14 -17z m-1410 -4 c4 -10
0 -12 -14 -9 -10 3 -16 9 -13 14 8 13 21 11 27 -5z m2277 -270 c0 -3 -4 -8
-10 -11 -5 -3 -10 -1 -10 4 0 6 5 11 10 11 6 0 10 -2 10 -4z m-165 -34 c-3 -3
-11 0 -18 7 -9 10 -8 11 6 5 10 -3 15 -9 12 -12z m-466 -95 c-13 -6 -28 -9
-34 -8 -5 2 -15 4 -22 5 -24 4 -22 12 2 12 14 0 25 -4 25 -9 0 -5 7 -1 16 7 8
9 21 13 27 9 6 -4 1 -10 -14 -16z m-54 -20 c4 5 5 2 1 -4 -5 -10 -11 -10 -26
0 -11 6 -20 16 -20 21 0 5 8 2 18 -7 10 -10 22 -14 27 -10z m-1350 -56 c-6 -5
-25 10 -25 20 0 5 6 4 14 -3 8 -7 12 -15 11 -17z m980 -1 c3 -5 1 -10 -4 -10
-6 0 -11 5 -11 10 0 6 2 10 4 10 3 0 8 -4 11 -10z m-25 -22 c0 -5 4 -7 9 -3 5
3 12 1 16 -5 3 -5 -4 -11 -17 -12 -13 0 -36 -2 -53 -3 -16 -1 -31 -7 -33 -14
-2 -6 -8 -9 -13 -5 -12 7 8 44 24 44 7 0 6 -4 -3 -10 -8 -5 -10 -10 -5 -10 6
0 18 9 28 20 16 19 47 18 47 -2z m-956 0 c-3 -4 -9 -8 -15 -8 -5 0 -9 4 -9 8
0 5 7 9 15 9 8 0 12 -4 9 -9z m1011 2 c3 -5 1 -10 -4 -10 -6 0 -11 5 -11 10 0
6 2 10 4 10 3 0 8 -4 11 -10z m-2779 -17 c-2 -9 -9 -19 -17 -21 -11 -3 -11 -1
1 7 8 6 11 11 7 11 -5 0 -5 5 -2 10 9 15 14 12 11 -7z m-30 -91 c-8 -16 -12
-32 -9 -36 4 -3 1 -6 -6 -6 -9 0 -11 6 -6 18 4 9 9 28 11 41 7 35 18 49 22 29
2 -9 -4 -30 -12 -46z m2600 -37 c10 -10 11 -15 4 -15 -7 0 -10 -7 -6 -15 3 -9
0 -15 -9 -15 -8 0 -15 2 -15 4 0 2 -3 12 -7 22 -4 12 -3 15 5 10 8 -5 10 -2 6
8 -8 20 3 20 22 1z m41 -60 c12 -20 18 -37 12 -40 -5 -4 -6 -12 -3 -18 4 -7
-8 2 -26 20 -27 25 -31 35 -22 46 7 8 9 17 5 20 -3 4 -2 7 3 7 5 -1 19 -16 31
-35z m1086 -62 c-20 -7 -15 -23 5 -17 14 5 15 4 2 -5 -22 -15 -40 -13 -40 5 0
8 -4 13 -10 9 -5 -3 -7 -12 -4 -20 4 -8 0 -13 -10 -11 -22 3 -41 24 -31 33 4
5 10 2 12 -4 4 -10 7 -10 17 0 7 7 26 13 42 14 16 1 23 -1 17 -4z m-1735 -68
c-3 -3 -9 2 -12 12 -6 14 -5 15 5 6 7 -7 10 -15 7 -18z m1502 21 c0 -3 -4 -8
-10 -11 -5 -3 -10 -1 -10 4 0 6 5 11 10 11 6 0 10 -2 10 -4z m25 -16 c3 -5 -1
-10 -10 -10 -9 0 -13 5 -10 10 3 6 8 10 10 10 2 0 7 -4 10 -10z m-1501 -36 c3
-8 2 -12 -4 -9 -6 3 -10 10 -10 16 0 14 7 11 14 -7z m2176 -8 c0 -3 -4 -8 -10
-11 -5 -3 -10 -1 -10 4 0 6 5 11 10 11 6 0 10 -2 10 -4z m-1063 -22 c-3 -3
-12 -4 -19 -1 -8 3 -5 6 6 6 11 1 17 -2 13 -5z m1077 -9 c3 -8 1 -15 -4 -15
-6 0 -10 7 -10 15 0 8 2 15 4 15 2 0 6 -7 10 -15z m-1131 -11 c-2 -6 -13 -10
-24 -7 -23 6 -16 22 10 20 10 0 17 -6 14 -13z m-66 -16 c0 -13 -1 -17 -4 -10
-3 6 -9 12 -14 12 -6 0 -7 -4 -4 -10 3 -5 2 -10 -4 -10 -5 0 -11 6 -14 13 -3
8 -10 6 -21 -8 -17 -20 -17 -19 -6 3 6 13 17 21 24 19 7 -3 19 -1 27 4 8 5 14
9 14 9 1 0 1 -10 2 -22z m1264 -123 c23 -54 49 -121 54 -145 2 -8 6 -24 10
-35 5 -14 4 -16 -3 -7 -5 8 -13 13 -18 12 -5 -1 -10 4 -13 11 -2 7 1 9 8 5 7
-4 9 -1 5 8 -3 9 -9 15 -12 14 -19 -2 -26 3 -14 11 11 7 11 11 -2 23 -8 9 -17
22 -18 29 -2 8 -8 19 -14 26 -6 6 -9 24 -6 39 4 20 2 25 -8 19 -9 -5 -10 -2
-6 13 5 15 1 24 -15 32 -17 10 -19 14 -8 21 11 7 11 9 -2 9 -9 0 -16 7 -16 15
0 8 4 12 9 9 4 -3 8 1 9 8 0 13 15 -17 60 -117z m-463 -230 c-3 -3 -9 2 -12
12 -6 14 -5 15 5 6 7 -7 10 -15 7 -18z m22 -29 c0 -2 -7 -7 -16 -10 -8 -3 -12
-2 -9 4 6 10 25 14 25 6z m13 -37 c5 -3 1 -9 -8 -12 -9 -4 -13 -3 -10 3 3 6 1
10 -5 10 -6 0 -8 5 -5 11 4 6 10 7 14 2 3 -4 10 -11 14 -14z m24 -51 c6 -29
12 -72 7 -54 -5 15 -8 16 -16 5 -7 -10 -8 -6 -5 14 2 16 -1 34 -9 41 -7 8 -10
16 -7 20 8 7 26 -8 30 -26z m29 -100 c3 -21 -24 -19 -29 3 -3 11 1 16 11 15 8
-2 16 -9 18 -18z m-1461 -257 c6 -20 5 -22 -7 -11 -7 7 -14 21 -14 31 0 23 11
12 21 -20z m2060 -113 c-2 -23 1 -38 7 -38 6 0 9 -2 6 -5 -3 -3 -13 -3 -22 1
-13 5 -14 9 -4 21 9 11 9 16 0 22 -7 4 -14 17 -17 30 -2 12 0 19 6 16 5 -4 9
0 9 7 0 10 2 10 9 -1 5 -8 8 -32 6 -53z m-2039 33 c10 8 14 8 14 0 0 -6 -4
-11 -10 -11 -5 0 -10 -5 -10 -11 0 -5 4 -8 9 -4 5 3 12 1 15 -4 4 -5 -1 -8
-10 -7 -16 3 -34 24 -33 41 0 6 3 4 6 -3 4 -10 8 -10 19 -1z m-2266 -202 c0
-5 -6 -7 -12 -3 -7 4 -5 -2 5 -14 18 -20 18 -20 -2 -15 -24 6 -29 43 -6 43 8
0 15 -5 15 -11z m45 -40 c-10 -15 -25 -10 -19 6 4 8 10 12 15 9 5 -3 7 -10 4
-15z m-235 -99 c-20 -13 -33 -13 -25 0 3 6 14 10 23 10 15 0 15 -2 2 -10z m35
-10 c3 -5 -1 -10 -10 -10 -9 0 -13 5 -10 10 3 6 8 10 10 10 2 0 7 -4 10 -10z
m-25 -45 c0 -8 -2 -15 -4 -15 -2 0 -6 7 -10 15 -3 8 -1 15 4 15 6 0 10 -7 10
-15z m2708 -61 c2 -1 -8 -1 -22 0 -13 0 -22 3 -20 5 2 2 -2 11 -9 19 -11 14
-1 9 51 -24z m-38 -33 c79 -47 105 -63 290 -183 182 -117 291 -181 298 -174 3
4 0 11 -8 16 -11 7 -12 10 -2 10 7 0 10 5 7 11 -4 6 -13 8 -19 6 -7 -3 -19 -1
-27 4 -11 7 -11 9 -1 9 7 0 10 5 7 11 -4 6 9 0 28 -12 29 -20 34 -27 26 -46
-7 -19 0 -27 58 -68 36 -25 68 -44 70 -41 7 7 -23 36 -36 36 -6 0 -11 5 -11
10 0 6 -7 10 -16 10 -11 0 -14 5 -10 16 4 11 1 14 -13 9 -21 -6 -37 20 -19 31
6 4 8 3 4 -4 -3 -6 -2 -13 4 -17 5 -3 10 -1 10 5 0 10 58 -14 70 -29 3 -3 34
-26 70 -50 36 -25 67 -48 70 -51 3 -4 12 -10 20 -13 12 -4 11 -6 -3 -6 -10 -1
-15 -6 -11 -12 3 -6 -8 -3 -25 5 -65 34 -27 -3 87 -84 427 -305 655 -520 1098
-1037 77 -90 154 -190 319 -417 91 -125 110 -146 117 -130 7 16 8 15 4 -5 -3
-17 9 -45 43 -95 26 -39 89 -136 138 -216 50 -80 122 -194 160 -255 38 -60 89
-146 112 -189 24 -44 62 -112 85 -150 67 -112 197 -340 272 -476 124 -226 322
-508 441 -628 30 -31 34 -33 48 -18 23 23 32 20 47 -14 7 -16 17 -30 21 -30 5
0 5 -5 2 -10 -4 -6 -12 -4 -21 5 -9 8 -13 19 -9 25 4 6 -1 7 -11 3 -14 -5 -16
-3 -11 11 4 10 3 15 -3 11 -20 -13 -8 -34 49 -87 73 -68 197 -155 282 -199 35
-18 66 -33 69 -34 3 0 16 -6 30 -13 22 -12 23 -11 8 1 -22 17 -23 31 -3 23 8
-3 15 -1 15 5 0 7 -10 9 -24 5 -21 -5 -23 -3 -19 15 3 11 9 17 12 12 6 -8 55
-30 135 -59 40 -15 69 -38 59 -47 -3 -3 -12 0 -20 8 -8 8 -20 15 -26 14 -9 0
-8 -2 1 -6 6 -2 12 -9 12 -15 0 -6 -7 -8 -15 -4 -8 3 -15 2 -15 -3 0 -4 35
-22 78 -38 109 -43 285 -82 443 -98 30 -3 79 -10 109 -15 30 -5 94 -12 143
-16 48 -3 87 -9 87 -13 0 -4 -14 -23 -31 -44 l-30 -37 -77 6 c-42 3 -135 12
-205 20 -71 8 -134 14 -140 13 -23 -1 39 -22 65 -22 27 0 45 -21 27 -32 -5 -4
-12 1 -15 9 -3 9 -10 16 -15 16 -4 0 -6 -7 -3 -15 6 -15 -7 -21 -20 -8 -3 4
-21 8 -39 9 -17 0 -44 2 -59 3 -18 0 -28 7 -28 16 0 8 -5 15 -11 15 -5 0 -7
-4 -4 -10 3 -5 2 -10 -4 -10 -5 0 -9 9 -8 19 1 14 5 17 17 12 8 -5 21 -6 28
-4 7 3 19 -1 28 -7 8 -7 17 -10 21 -6 3 3 0 6 -8 6 -11 0 -11 2 -1 9 8 5 -24
16 -85 30 -54 12 -159 42 -233 66 -124 41 -166 49 -130 24 12 -8 11 -9 -5 -7
-11 2 -19 10 -18 19 2 9 -24 28 -75 53 -113 55 -302 179 -374 244 -25 23 -28
24 -44 8 -12 -13 -19 -14 -24 -5 -4 6 -12 9 -17 6 -6 -4 -16 5 -23 18 -7 13
-16 22 -20 20 -5 -3 -7 6 -6 19 1 19 4 21 19 12 9 -6 17 -18 17 -27 0 -9 7
-20 16 -23 15 -6 15 -4 3 11 -13 16 -12 17 3 4 10 -7 15 -17 12 -22 -3 -5 0
-9 5 -9 24 0 8 26 -52 89 -55 59 -124 137 -186 211 -11 14 -20 19 -21 13 0 -7
4 -13 8 -13 10 0 52 -73 52 -89 0 -6 -4 -11 -10 -11 -5 0 -7 8 -3 18 5 13 3
15 -7 5 -10 -9 -16 -9 -26 2 -8 7 -14 18 -14 23 0 6 -6 12 -12 15 -7 2 -30 30
-51 60 -27 40 -37 62 -32 76 6 19 8 19 21 6 35 -34 30 -11 -9 49 -23 36 -49
78 -58 93 -9 15 -47 78 -84 138 -62 102 -144 246 -259 455 -91 167 -184 315
-194 313 -6 -2 -9 4 -6 11 9 24 -277 488 -292 473 -3 -2 2 -17 10 -32 16 -30
13 -45 -7 -45 -7 0 -6 4 3 10 12 8 12 10 -5 10 -17 0 -17 2 -5 10 8 5 12 10 8
11 -5 1 -12 3 -18 4 -5 1 -14 3 -20 4 -5 0 -10 6 -10 11 0 6 -9 20 -20 32 -11
12 -20 28 -20 35 0 7 -4 13 -10 13 -5 0 -10 8 -10 17 0 13 3 14 11 6 6 -6 18
-9 27 -6 8 4 13 2 10 -3 -3 -5 8 -22 25 -39 42 -43 26 -14 -90 158 -145 213
-355 488 -508 661 -167 190 -678 686 -707 686 -3 0 -5 -7 -5 -15 0 -8 4 -12 9
-9 9 6 11 -20 2 -29 -13 -12 -33 21 -28 47 3 20 -4 33 -39 66 -67 61 -181 149
-300 231 -60 41 -159 109 -220 151 -167 116 -264 180 -363 239 -49 29 -123 74
-165 101 -74 47 -77 50 -84 95 -4 25 -9 52 -12 61 -8 18 -6 17 87 -37z m-2529
2 c35 -21 77 -47 95 -58 96 -59 184 -112 219 -131 22 -12 114 -64 205 -116 91
-52 242 -136 335 -188 94 -51 224 -125 290 -163 271 -159 434 -240 548 -276
54 -16 245 -44 275 -40 51 8 160 -81 284 -230 78 -95 98 -132 58 -111 -11 6
-26 8 -32 4 -6 -4 -8 -3 -4 4 8 13 -50 40 -193 88 -365 124 -648 72 -814 -148
-42 -57 -87 -168 -120 -303 -28 -111 -36 -164 -57 -395 -5 -63 -12 -140 -15
-170 -2 -30 -7 -226 -10 -435 -3 -209 -7 -468 -10 -575 -2 -107 -5 -646 -5
-1197 l0 -1002 -207 -1 c-115 -1 -214 -2 -221 -3 -7 0 -1 -11 14 -24 15 -12
23 -23 18 -23 -6 0 -16 6 -23 13 -10 10 -11 9 -5 -6 5 -13 2 -16 -10 -11 -9 3
-16 2 -16 -4 0 -17 39 -21 234 -19 105 0 197 -2 204 -7 8 -5 12 -46 12 -146 0
-116 -2 -139 -16 -144 -24 -9 -426 -8 -435 1 -7 8 -15 375 -24 1213 -13 1134
-52 1867 -135 2525 -37 291 -67 454 -175 965 -47 219 -182 700 -260 925 -82
236 -78 225 -72 225 3 0 34 -17 68 -37z m-91 17 c0 -5 -4 -10 -9 -10 -6 0 -13
5 -16 10 -3 6 1 10 9 10 9 0 16 -4 16 -10z m2740 -30 c0 -4 20 -18 45 -31 49
-26 55 -35 26 -35 -11 0 -19 4 -18 9 1 5 -4 12 -12 15 -8 3 -11 0 -7 -7 4 -6
0 -11 -9 -11 -12 0 -15 6 -10 20 4 12 2 20 -5 20 -6 0 -8 -4 -5 -10 8 -13 -5
-13 -25 0 -11 7 -11 10 -2 10 7 0 10 5 7 11 -4 6 -13 8 -21 5 -8 -3 -11 0 -8
8 5 14 44 10 44 -4z m-2700 -69 c10 -28 14 -49 9 -45 -5 3 -9 -1 -9 -8 -1 -7
-8 0 -16 16 -12 22 -13 30 -4 36 9 6 9 13 1 28 -6 11 -11 24 -11 28 0 16 12
-6 30 -55z m2494 43 c3 -8 2 -12 -4 -9 -6 3 -10 10 -10 16 0 14 7 11 14 -7z
m1960 -24 c-5 -5 -10 3 -11 18 -1 22 0 24 9 8 6 -10 6 -22 2 -26z m1 -30 c3
-5 1 -10 -4 -10 -6 0 -11 5 -11 10 0 6 2 10 4 10 3 0 8 -4 11 -10z m0 -30 c3
-5 1 -10 -4 -10 -6 0 -11 5 -11 10 0 6 2 10 4 10 3 0 8 -4 11 -10z m-1945 -20
c0 -5 -2 -10 -4 -10 -3 0 -8 5 -11 10 -3 6 -1 10 4 10 6 0 11 -4 11 -10z m67
-15 c8 -9 18 -13 21 -10 4 3 0 10 -8 15 -8 6 -10 10 -5 10 6 -1 19 -7 29 -15
11 -8 14 -15 7 -15 -7 0 -9 -5 -6 -11 4 -6 13 -8 19 -6 7 3 13 -1 13 -8 0 -11
-5 -12 -21 -2 -12 6 -24 10 -28 9 -5 -1 -8 2 -8 7 0 5 -9 13 -20 16 -11 3 -20
11 -20 16 0 13 9 11 27 -6z m1883 -20 c0 -38 -16 -37 -17 1 0 18 3 31 8 28 5
-3 9 -16 9 -29z m-1949 10 c23 9 473 -275 709 -446 25 -18 68 -49 95 -69 273
-199 399 -305 675 -572 85 -83 156 -145 158 -139 2 6 8 9 13 5 5 -3 9 -1 9 5
0 16 -18 22 -23 9 -2 -7 -8 -10 -12 -5 -5 4 0 13 10 21 17 12 22 11 38 -7 10
-11 15 -26 13 -33 -3 -8 1 -11 10 -7 10 4 12 0 8 -11 -8 -22 16 -52 27 -34 5
8 8 5 6 -9 l-1 -23 -25 23 c-14 12 -34 31 -43 41 -10 11 -21 16 -25 13 -3 -4
30 -44 73 -89 209 -218 316 -355 681 -868 28 -40 201 -307 258 -400 49 -79
163 -277 500 -866 170 -296 212 -359 231 -343 10 8 14 8 14 0 0 -6 -5 -11 -11
-11 -17 0 -5 -23 58 -107 222 -300 473 -505 786 -642 107 -47 211 -83 301
-107 87 -23 376 -72 490 -83 54 -5 101 -12 103 -15 12 -11 -104 -173 -231
-325 l-71 -83 -105 6 c-58 4 -134 11 -169 16 -50 7 -67 6 -77 -5 -11 -10 -11
-14 -1 -18 6 -2 10 -7 7 -10 -3 -4 -19 0 -34 8 -27 14 -28 14 -15 -2 13 -15
12 -16 -6 -9 -11 5 -29 10 -40 11 -11 2 -21 4 -22 4 -2 1 -5 1 -8 1 -3 -1 -13
7 -22 15 -10 10 -18 13 -22 6 -10 -16 -32 4 -25 22 4 12 11 14 24 7 9 -5 20
-6 24 -3 3 3 6 -1 6 -9 0 -22 28 -31 32 -11 3 15 4 15 20 0 10 -11 19 -13 23
-7 3 6 18 7 33 4 17 -4 23 -3 17 3 -5 5 -41 15 -80 22 -78 15 -272 70 -353
101 -81 31 -168 77 -262 137 -98 64 -128 89 -264 222 -202 197 -253 273 -643
946 -195 336 -436 746 -468 795 -12 19 -54 87 -92 150 -462 763 -926 1308
-1533 1801 -167 136 -250 197 -485 354 -121 82 -221 149 -223 151 -2 1 -8 65
-13 141 -11 174 -29 323 -39 323 -12 0 -18 -49 -7 -53 14 -4 1 -37 -15 -37
-10 0 -10 2 1 9 11 7 10 14 -5 37 -11 15 -13 25 -6 21 6 -5 12 -4 12 2 0 6 -4
11 -10 11 -5 0 -10 8 -10 18 0 12 2 14 8 4 5 -7 15 -10 23 -7z m-2494 -30 c6
-14 8 -25 4 -25 -4 0 -13 11 -19 25 -6 14 -8 25 -4 25 4 0 12 -11 19 -25z
m4450 -45 c-1 -11 -5 -20 -9 -20 -3 0 -6 9 -5 20 1 11 5 20 9 20 3 0 6 -9 5
-20z m-1946 -39 c-8 -5 -10 -14 -6 -22 6 -11 5 -11 -5 -2 -14 12 -6 33 13 33
8 0 7 -3 -2 -9z m1945 -24 c-1 -13 -6 -29 -11 -36 -5 -9 -4 -12 2 -8 11 7 9
-20 -3 -60 -3 -13 -2 -23 3 -23 15 0 5 -72 -13 -89 -14 -15 -15 -14 -12 4 2
11 8 23 13 28 7 5 7 10 0 15 -11 7 -15 72 -5 72 3 0 5 24 4 53 -1 30 3 55 9
59 16 10 16 11 13 -15z m-1443 -121 c7 2 22 -3 32 -13 11 -10 33 -25 49 -33
17 -8 41 -26 55 -39 15 -12 40 -30 56 -38 17 -9 32 -19 35 -24 3 -4 11 -9 19
-11 19 -4 79 -62 74 -70 -2 -4 -14 1 -25 12 -15 14 -25 17 -34 10 -8 -8 -13
-6 -18 5 -4 10 -2 14 5 9 7 -4 10 -1 7 7 -2 7 -16 14 -31 14 -33 2 -80 33 -71
47 4 6 3 8 -4 5 -16 -10 -44 4 -38 19 3 8 0 11 -8 8 -7 -3 -19 2 -26 11 -11
13 -10 15 6 9 15 -5 16 -4 4 5 -9 6 -19 6 -24 1 -11 -11 -38 14 -34 31 2 6 -3
14 -11 17 -9 3 -11 0 -6 -9 5 -7 -7 -2 -26 11 -44 30 -48 35 -26 27 10 -4 17
-1 18 6 1 7 3 4 6 -5 2 -9 10 -15 16 -12z m1429 -128 c-7 -7 -12 -17 -12 -22
0 -6 5 -4 10 4 6 9 10 10 10 3 0 -6 -4 -14 -10 -18 -5 -3 -7 -13 -4 -23 3 -9
-1 -6 -9 7 -15 25 -12 50 7 63 15 10 21 -1 8 -14z m-524 -120 c-1 -15 -6 -28
-11 -28 -5 0 -5 10 -2 23 5 17 4 18 -4 7 -5 -8 -14 -11 -18 -6 -4 4 -1 13 9
20 12 9 14 17 6 31 -9 20 -9 20 6 1 9 -11 15 -32 14 -48z m-618 27 c11 -13 10
-14 -4 -9 -9 3 -16 10 -16 15 0 13 6 11 20 -6z m-1625 -14 c-8 -13 32 -34 48
-25 9 5 9 4 1 -5 -8 -9 -17 -9 -37 0 -27 12 -32 20 -20 32 10 10 15 8 8 -2z
m89 -40 c3 -5 -1 -11 -9 -14 -9 -4 -12 -1 -8 9 6 16 10 17 17 5z m2146 -33 c0
-5 -7 -3 -15 6 -8 8 -15 18 -15 22 0 3 7 1 15 -6 8 -7 15 -17 15 -22z m-1205
-86 c111 -73 242 -166 445 -316 322 -239 666 -577 994 -979 50 -61 92 -104 98
-101 7 4 8 2 4 -5 -4 -6 44 -82 117 -184 210 -292 262 -373 544 -847 154 -258
261 -440 454 -776 228 -396 315 -530 460 -709 194 -241 448 -427 731 -539 127
-50 431 -114 626 -132 40 -4 71 -10 70 -15 -4 -9 -158 -178 -258 -281 -102
-105 -112 -118 -106 -134 4 -12 10 -12 26 -4 11 6 17 16 14 22 -4 7 -2 8 5 4
13 -8 91 63 281 254 206 207 349 380 522 627 46 65 100 143 121 173 254 363
428 595 586 779 313 364 515 501 741 501 83 -1 141 -18 470 -144 285 -108 357
-149 390 -222 33 -71 43 -148 35 -269 -12 -196 -28 -279 -111 -579 -8 -28 -19
-53 -26 -58 -12 -7 -96 -3 -104 5 -2 2 8 37 22 78 33 98 82 299 91 374 4 33 6
108 6 167 -2 193 -59 256 -175 197 -82 -42 -241 -214 -418 -454 -57 -77 -120
-162 -140 -190 -46 -61 -460 -678 -625 -929 -66 -100 -158 -237 -205 -304
l-85 -122 -170 -1 c-708 -5 -1188 26 -1675 106 -43 7 -260 75 -337 106 -243
96 -438 226 -632 421 -107 106 -195 208 -250 288 -115 167 -306 484 -428 710
-22 41 -63 113 -90 160 -28 47 -70 123 -95 170 -219 412 -227 426 -432 760
-134 218 -188 300 -336 512 -148 212 -418 517 -700 792 -139 136 -283 256
-513 425 l-98 72 7 107 c4 59 8 211 8 339 0 230 0 231 21 221 11 -6 65 -40
120 -76z m-75 78 c0 -5 -2 -10 -4 -10 -3 0 -8 5 -11 10 -3 6 -1 10 4 10 6 0
11 -4 11 -10z m70 -11 c0 -4 -7 -6 -15 -3 -8 4 -15 10 -15 15 0 4 7 6 15 3 8
-4 15 -10 15 -15z m1073 -20 c-8 -8 -13 -7 -18 2 -5 8 -4 10 3 5 7 -4 12 -2
12 5 0 7 3 9 7 6 4 -4 2 -12 -4 -18z m129 -1 c-7 -7 -12 -8 -12 -2 0 14 12 26
19 19 2 -3 -1 -11 -7 -17z m-1355 -42 c-4 -9 -12 -16 -19 -16 -9 0 -9 3 2 10
12 8 12 12 2 18 -8 5 -10 16 -6 27 7 18 8 17 17 -3 5 -11 7 -28 4 -36z m197
25 c-2 -3 -12 3 -22 13 -16 17 -16 18 5 5 12 -7 20 -15 17 -18z m1076 -3 c0
-5 -6 -6 -12 -3 -7 4 -3 -2 9 -13 12 -11 20 -22 17 -25 -10 -9 -53 35 -47 49
5 14 33 8 33 -8z m-2224 -29 c10 -17 -29 -6 -48 14 -10 9 -18 19 -18 21 0 7
59 -25 66 -35z m2297 9 c-2 -4 -10 -2 -17 5 -8 6 -12 15 -9 19 2 4 10 2 17 -5
8 -6 12 -15 9 -19z m-1113 8 c0 -3 -4 -8 -10 -11 -5 -3 -10 -1 -10 4 0 6 5 11
10 11 6 0 10 -2 10 -4z m12 -38 c-7 -7 -12 -8 -12 -2 0 14 12 26 19 19 2 -3
-1 -11 -7 -17z m-1176 -14 c18 -14 18 -14 -6 -3 -31 14 -36 19 -24 19 6 0 19
-7 30 -16z m1224 1 c0 -8 -4 -15 -10 -15 -5 0 -7 7 -4 15 4 8 8 15 10 15 2 0
4 -7 4 -15z m1030 -6 c0 -6 -4 -7 -10 -4 -5 3 -10 11 -10 16 0 6 5 7 10 4 6
-3 10 -11 10 -16z m-1324 -33 c0 -19 -4 -32 -8 -30 -3 2 -9 -2 -11 -8 -3 -7
-5 1 -4 17 1 23 13 51 23 55 1 0 1 -15 0 -34z m1108 -18 c16 -11 -6 -10 -23 1
-8 5 -10 14 -5 22 6 10 9 10 12 -1 3 -8 10 -18 16 -22z m314 -5 c16 -16 16
-16 0 -11 -9 4 -19 2 -21 -5 -3 -7 -4 -2 -4 11 1 26 4 27 25 5z m-159 -103
c39 -36 71 -73 71 -83 0 -10 -4 -16 -10 -12 -5 3 -8 11 -6 18 1 7 1 9 -1 5 -9
-15 -25 -8 -19 8 4 11 2 15 -8 11 -10 -4 -13 -1 -9 9 4 10 0 12 -11 8 -9 -3
-16 -1 -16 6 0 6 -5 8 -12 4 -7 -5 -9 -2 -5 9 4 10 2 14 -7 11 -7 -2 -23 4
-36 16 -21 18 -20 25 3 21 12 -2 8 5 -15 25 -19 15 -20 16 -9 2 12 -16 11 -18
-3 -18 -16 0 -22 21 -10 33 10 9 25 -1 103 -73z m-1270 49 c-6 -11 -5 -20 1
-24 11 -7 3 -54 -11 -69 -5 -6 -9 1 -9 17 0 15 5 27 10 27 6 0 10 4 10 10 0 5
-6 7 -13 4 -10 -3 -13 3 -9 24 2 16 10 29 17 29 10 0 11 -5 4 -18z m-2296 -6
c3 -5 0 -17 -4 -28 -9 -19 -9 -19 -5 2 2 12 -1 24 -8 27 -8 3 -8 5 1 5 6 1 14
-2 16 -6z m17 -73 c0 -5 -5 -10 -11 -10 -5 0 -7 5 -4 10 3 6 8 10 11 10 2 0 4
-4 4 -10z m11 -53 c-10 -9 -11 -8 -5 6 3 10 9 15 12 12 3 -3 0 -11 -7 -18z
m2015 -32 c-11 -8 -22 -12 -25 -9 -6 6 19 24 34 24 6 -1 1 -7 -9 -15z m988
-27 c61 -42 147 -128 140 -140 -4 -7 -3 -8 5 -4 14 9 43 -12 36 -24 -3 -5 -1
-11 5 -15 5 -3 10 -1 10 6 0 21 14 0 15 -23 2 -19 -1 -18 -26 10 -16 18 -30
31 -31 30 -2 -2 -14 5 -28 15 -13 9 -19 17 -12 17 7 0 11 4 7 10 -3 5 -13 7
-23 4 -13 -5 -14 -4 -3 4 16 11 0 25 -21 17 -8 -3 -27 7 -44 22 -16 16 -40 36
-54 46 -13 9 -19 17 -12 17 7 0 10 5 7 10 -4 6 -11 7 -17 4 -7 -4 -8 -2 -4 4
10 16 12 15 50 -10z m-964 -26 c0 -15 -2 -15 -10 -2 -13 20 -13 33 0 25 6 -3
10 -14 10 -23z m48 -26 c-7 -8 -15 -12 -17 -11 -5 6 10 25 20 25 5 0 4 -6 -3
-14z m-198 -36 c5 8 10 10 10 4 0 -6 -7 -17 -15 -24 -11 -9 -15 -9 -15 -1 0 7
-4 9 -10 6 -6 -3 -7 1 -3 10 5 13 7 14 14 3 7 -11 11 -10 19 2z m220 -10 c0
-5 -2 -10 -4 -10 -3 0 -8 5 -11 10 -3 6 -1 10 4 10 6 0 11 -4 11 -10z m-180
-15 c0 -8 -4 -15 -8 -15 -5 0 -9 7 -9 15 0 8 4 15 9 15 4 0 8 -7 8 -15z m40
-20 c0 -8 -4 -15 -10 -15 -5 0 -7 7 -4 15 4 8 8 15 10 15 2 0 4 -7 4 -15z
m-1913 -31 c2 -13 1 -15 -4 -4 -3 8 -11 19 -17 23 -7 6 -6 7 4 4 8 -2 16 -12
17 -23z m2429 -266 c5 -7 3 -8 -6 -3 -10 6 -12 4 -7 -8 4 -11 2 -14 -9 -10
-17 6 -18 20 -1 26 6 3 13 6 14 6 1 1 5 -4 9 -11z m17 -25 c-5 -12 -2 -15 10
-10 11 4 14 2 10 -9 -5 -14 -7 -14 -21 -1 -8 8 -11 20 -8 26 11 17 16 13 9 -6z
m63 -34 c3 -6 1 -16 -5 -22 -9 -9 -10 -7 -5 7 6 16 4 18 -10 13 -10 -4 -15 -3
-11 3 8 13 22 13 31 -1z m1030 -81 c-20 -14 -27 -8 -22 15 3 12 3 16 0 10 -8
-18 -27 -16 -21 1 3 8 -4 22 -15 33 -12 10 -18 12 -14 6 4 -7 2 -13 -3 -13
-13 0 -13 3 -4 25 5 14 13 10 48 -26 28 -29 39 -47 31 -51z m774 82 c0 -5 -4
-10 -10 -10 -5 0 -10 5 -10 10 0 6 5 10 10 10 6 0 10 -4 10 -10z m-825 -40 c3
-5 1 -10 -4 -10 -6 0 -11 5 -11 10 0 6 2 10 4 10 3 0 8 -4 11 -10z m870 0 c-8
-13 14 -42 26 -35 4 3 7 -4 6 -15 -1 -11 -3 -20 -5 -20 -8 0 -32 29 -32 38 0
6 -6 13 -12 15 -10 4 -9 8 2 16 19 14 23 14 15 1z m-794 -59 c-7 -5 -11 -14
-7 -20 5 -7 1 -9 -8 -5 -19 7 -21 20 -3 27 20 9 33 7 18 -2z m607 -3 c-2 -7 5
-12 15 -10 9 2 17 -2 17 -8 0 -5 12 -23 28 -39 50 -54 72 -81 63 -81 -5 0 -14
7 -21 15 -9 11 -16 12 -26 4 -10 -8 -12 -6 -9 10 2 11 -1 24 -7 27 -7 4 -8 2
-4 -4 10 -17 -9 -15 -23 2 -6 7 -9 22 -5 32 4 13 3 15 -3 7 -12 -16 -47 23
-39 43 7 17 17 19 14 2z m-578 -39 c0 -10 -4 -19 -9 -19 -5 0 -8 11 -7 24 1
28 16 24 16 -5z m702 -112 c9 -3 22 -16 28 -28 8 -15 9 -19 1 -15 -6 4 -11 2
-11 -5 0 -16 -11 -5 -13 13 -2 7 -7 15 -12 17 -18 8 -35 29 -35 43 1 9 4 9 13
-3 7 -8 20 -18 29 -22z m-4199 -72 c4 -8 3 -16 -1 -19 -4 -3 -9 4 -9 15 -2 23
3 25 10 4z m21 -49 c-8 -20 -21 -21 -21 -1 0 8 4 12 9 9 4 -3 8 0 8 7 0 7 2
10 5 7 3 -3 3 -13 -1 -22z m3716 -26 c15 -21 18 -34 12 -46 -6 -11 -11 -13
-16 -5 -4 6 -2 11 3 11 6 0 11 5 11 11 0 6 -6 9 -13 6 -23 -9 -40 8 -32 32 8
27 10 27 35 -9z m-849 -32 c23 -25 23 -23 3 -39 -15 -12 -16 -11 -10 9 5 16 4
21 -6 17 -9 -4 -14 2 -14 15 0 25 4 25 27 -2z m-2854 -41 c14 3 10 -36 -5 -63
-9 -14 -11 -15 -12 -3 0 8 5 20 11 26 9 9 8 16 -5 28 -9 9 -16 26 -15 38 1 20
2 20 8 -3 4 -14 13 -24 18 -23z m2911 -18 c10 -16 11 -24 2 -33 -8 -8 -9 -6
-4 9 7 18 6 19 -11 5 -17 -14 -17 -13 -10 10 7 22 6 23 -9 11 -9 -8 -16 -9
-16 -3 0 9 14 19 30 21 3 1 11 -9 18 -20z m872 -9 c0 -5 -4 -10 -10 -10 -5 0
-10 5 -10 10 0 6 5 10 10 10 6 0 10 -4 10 -10z m803 -4 c4 -10 1 -13 -8 -9 -8
3 -12 9 -9 14 7 12 11 11 17 -5z m-759 -56 c-3 -2 -9 1 -13 9 -5 7 -16 11 -26
9 -10 -2 -20 3 -23 11 -3 8 0 11 6 7 6 -3 14 -2 17 4 4 6 14 1 25 -12 10 -13
16 -25 14 -28z m-873 -6 c-11 -17 -11 -17 -6 4 4 13 2 22 -4 22 -6 0 -11 -5
-11 -12 0 -6 -2 -9 -5 -6 -3 3 -2 13 1 22 6 15 8 16 21 3 12 -12 13 -19 4 -33z
m-2950 -11 c-12 -20 -14 -14 -5 12 4 9 9 14 11 11 3 -2 0 -13 -6 -23z m3829
-4 c0 7 5 9 12 5 9 -6 9 -9 0 -12 -7 -2 -10 -8 -6 -13 8 -14 -6 -11 -22 5 -19
19 -18 32 1 16 11 -9 15 -9 15 -1z m594 -25 c3 -8 2 -12 -4 -9 -6 3 -10 10
-10 16 0 14 7 11 14 -7z m237 -16 c1 -7 1 -16 0 -20 0 -5 2 -7 7 -5 4 1 8 -2
9 -7 1 -5 7 -12 13 -16 14 -9 21 -60 8 -60 -5 0 -12 8 -15 18 -4 9 -14 24 -24
32 -24 21 -30 70 -9 70 6 0 11 -6 11 -12z m-192 -42 c24 -38 28 -61 6 -32 -8
11 -15 14 -15 8 0 -7 -5 -12 -11 -12 -6 0 -8 9 -4 20 5 16 3 19 -10 13 -15 -5
-15 -3 -4 16 8 11 15 21 16 21 1 0 11 -15 22 -34z m-1235 -228 c-3 -4 -11 -5
-19 -1 -21 7 -19 12 4 10 11 0 18 -5 15 -9z m909 -111 c3 -8 -1 -14 -8 -14 -7
0 -11 6 -8 14 3 7 6 13 8 13 2 0 5 -6 8 -13z m29 -59 c-7 -7 -12 -8 -12 -2 0
14 12 26 19 19 2 -3 -1 -11 -7 -17z m18 -38 c-20 -13 -30 -12 -30 1 0 5 5 7
10 4 6 -3 10 2 10 11 0 14 3 15 12 6 10 -10 10 -15 -2 -22z m763 16 c3 -8 0
-17 -7 -19 -10 -4 -12 1 -9 14 6 23 9 24 16 5z m42 -66 c10 -22 22 -40 27 -40
5 0 6 -4 3 -10 -3 -5 -1 -10 6 -10 7 0 9 -3 5 -7 -12 -13 -35 -11 -47 3 -8 10
-8 14 0 14 6 0 11 7 11 15 0 8 -6 12 -14 9 -19 -7 -52 52 -33 59 22 9 24 8 42
-33z m-194 -73 c-10 -9 -11 -8 -5 6 3 10 9 15 12 12 3 -3 0 -11 -7 -18z m254
-27 c3 -5 1 -10 -4 -10 -6 0 -11 5 -11 10 0 6 2 10 4 10 3 0 8 -4 11 -10z
m-151 -116 c3 -8 2 -12 -4 -9 -6 3 -10 1 -10 -6 0 -7 -2 -10 -5 -7 -5 5 4 38
10 38 2 0 6 -7 9 -16z m-1207 -206 c2 -17 0 -19 -7 -8 -5 8 -6 18 -4 22 8 12
10 10 11 -14z m803 -3 c0 -2 -9 -3 -19 -2 -11 0 -18 5 -15 9 4 6 34 0 34 -7z
m-756 -30 c3 -8 4 -15 2 -15 -3 0 -13 -3 -23 -6 -15 -5 -15 -4 -3 5 13 9 12
11 -5 11 -17 0 -17 2 -5 10 21 13 27 12 34 -5z m762 -7 c-1 -17 4 -22 18 -20
11 2 15 -1 11 -7 -3 -6 -1 -11 4 -11 6 0 11 -8 11 -17 0 -15 -1 -15 -13 2 -8
10 -19 15 -25 11 -7 -4 -12 -1 -12 8 0 8 -5 16 -12 18 -6 2 -9 12 -5 21 9 24
24 21 23 -5z m-753 -39 c-4 -15 -8 -17 -14 -8 -6 11 4 28 18 29 0 0 -1 -9 -4
-21z m1560 -53 c3 -8 0 -22 -7 -31 -12 -16 -13 -16 -19 -1 -4 10 -1 16 9 16 8
0 12 5 9 10 -4 6 -11 8 -16 5 -5 -4 -9 -1 -9 4 0 16 27 13 33 -3z m-765 -21
c-3 -3 -9 2 -12 12 -6 14 -5 15 5 6 7 -7 10 -15 7 -18z m777 -46 c11 -16 1
-19 -13 -3 -7 8 -8 14 -3 14 5 0 13 -5 16 -11z m3513 -31 c-3 -7 -12 -14 -22
-14 -13 -2 -13 -1 -1 3 8 2 13 9 10 14 -4 5 -1 9 5 9 7 0 10 -6 8 -12z m119
-32 c3 -3 2 -9 -2 -15 -8 -14 -42 -14 -50 0 -4 6 -13 8 -21 5 -7 -3 -16 -1
-19 5 -4 5 -11 7 -16 4 -5 -4 -9 -2 -9 4 0 5 5 13 10 16 6 4 8 10 5 15 -5 8
93 -24 102 -34z m26 -26 c-3 -11 -9 -20 -14 -20 -10 0 -11 12 -3 34 9 22 23
10 17 -14z m37 4 c0 -3 -7 -12 -15 -20 -13 -14 -15 -13 -15 5 0 12 6 21 15 21
8 0 15 -3 15 -6z m-8913 -46 c-3 -8 -6 -5 -6 6 -1 11 2 17 5 13 3 -3 4 -12 1
-19z m9053 -10 c0 -6 -6 -5 -15 2 -8 7 -15 14 -15 16 0 2 7 1 15 -2 8 -4 15
-11 15 -16z m-3947 -19 c-8 -8 -13 -7 -18 2 -6 8 -4 10 5 4 10 -6 12 -4 6 11
-6 15 -5 17 5 7 9 -10 10 -16 2 -24z m4025 -4 c3 -3 -4 -5 -16 -5 -11 0 -23 4
-27 9 -6 10 33 6 43 -4z m-58 -5 c0 -5 -2 -10 -4 -10 -3 0 -8 5 -11 10 -3 6
-1 10 4 10 6 0 11 -4 11 -10z m-3575 -260 c-3 -5 -1 -10 5 -10 6 0 8 -5 4 -12
-6 -9 -9 -9 -12 0 -2 7 -8 10 -13 6 -10 -6 -12 9 -2 19 10 11 25 8 18 -3z m15
-55 c4 3 10 -4 13 -15 3 -11 3 -20 0 -20 -9 0 -32 34 -32 45 0 6 3 4 6 -3 2
-6 8 -10 13 -7z m4036 -17 c4 -7 3 -8 -4 -4 -7 4 -12 2 -12 -3 0 -6 4 -11 9
-11 4 0 8 -9 7 -20 -2 -31 -21 -24 -22 7 -1 41 8 54 22 31z m-8980 -62 c0 -13
-4 -22 -8 -19 -5 2 -8 -1 -8 -8 0 -7 -2 -10 -5 -7 -5 5 14 58 21 58 1 0 1 -11
0 -24z m8778 -12 c3 -8 2 -12 -4 -9 -6 3 -10 10 -10 16 0 14 7 11 14 -7z m6
-28 c0 -3 -4 -8 -10 -11 -5 -3 -10 -1 -10 4 0 6 5 11 10 11 6 0 10 -2 10 -4z
m15 -26 c3 -5 1 -10 -4 -10 -6 0 -11 5 -11 10 0 6 2 10 4 10 3 0 8 -4 11 -10z
m-8800 -32 c1 -13 -5 -25 -11 -25 -9 0 -10 7 -4 23 6 14 5 25 -1 28 -5 2 -4 3
3 2 7 -2 13 -14 13 -28z m3500 23 c3 -5 2 -12 -3 -15 -5 -3 -9 1 -9 9 0 17 3
19 12 6z m12 -43 c-3 -8 -6 -5 -6 6 -1 11 2 17 5 13 3 -3 4 -12 1 -19z m27
-23 c3 -8 1 -15 -4 -15 -6 0 -10 7 -10 15 0 8 2 15 4 15 2 0 6 -7 10 -15z
m1606 -29 c0 -3 -4 -8 -10 -11 -5 -3 -10 -1 -10 4 0 6 5 11 10 11 6 0 10 -2
10 -4z m44 -22 c3 -8 2 -12 -4 -9 -6 3 -10 -1 -10 -10 0 -15 -2 -15 -15 -1 -8
8 -15 18 -15 21 0 4 7 5 15 1 8 -3 15 -1 15 4 0 15 7 12 14 -6z m3576 -212 c0
-16 -7 -37 -16 -48 -15 -19 -15 -19 -5 1 5 11 7 33 4 48 -3 16 -1 27 6 27 6 0
11 -13 11 -28z m193 -20 c-5 -11 -7 -11 -14 0 -6 9 -9 9 -9 1 0 -6 4 -14 9
-18 9 -5 7 -42 -3 -52 -3 -3 -11 1 -19 8 -19 18 -1 78 23 76 11 -1 16 -7 13
-15z m-5239 -15 c4 4 4 -1 0 -11 -5 -13 -4 -17 3 -13 12 8 36 -17 26 -26 -3
-4 -2 -7 4 -7 6 0 13 -6 16 -13 4 -10 -2 -13 -19 -9 -15 3 -24 11 -24 23 0 11
-4 19 -8 19 -5 0 -14 12 -21 27 -10 22 -10 25 2 15 8 -7 17 -9 21 -5z m3191 3
c-3 -5 -12 -10 -18 -10 -7 0 -6 4 3 10 19 12 23 12 15 0z m-7465 -90 c0 -11
-2 -20 -4 -20 -2 0 -6 9 -9 20 -3 11 -1 20 4 20 5 0 9 -9 9 -20z m4332 -17
c-6 -2 -9 -10 -6 -15 4 -7 2 -8 -5 -4 -13 9 -5 26 12 25 9 0 8 -2 -1 -6z m862
-69 c5 -14 4 -15 -9 -4 -17 14 -19 20 -6 20 5 0 12 -7 15 -16z m803 4 c15 -7
29 -13 31 -14 6 -3 -11 -34 -18 -34 -5 0 -18 14 -30 30 -24 34 -23 35 17 18z
m-27 -18 c0 -5 -4 -10 -10 -10 -5 0 -10 5 -10 10 0 6 5 10 10 10 6 0 10 -4 10
-10z m-750 -14 c0 -3 -4 -8 -10 -11 -5 -3 -10 -1 -10 4 0 6 5 11 10 11 6 0 10
-2 10 -4z m840 -7 c0 -5 5 -7 10 -4 6 3 10 1 10 -5 0 -7 -7 -9 -17 -6 -9 4
-20 1 -24 -6 -5 -8 -8 -5 -6 10 1 21 27 32 27 11z m-805 -46 l26 -38 -32 35
c-19 21 -29 27 -25 16 6 -16 4 -17 -9 -6 -13 11 -13 15 -3 21 7 5 14 9 14 9 1
0 14 -17 29 -37z m904 -10 c12 -13 21 -27 18 -29 -9 -9 -48 16 -42 26 7 11
-30 32 -40 22 -5 -4 -5 -2 -1 5 9 16 35 6 65 -24z m736 -9 c11 -1 30 -3 43 -3
12 -1 22 -5 22 -11 0 -5 -7 -6 -17 -3 -12 5 -14 3 -8 -8 6 -11 5 -12 -6 -1
-15 14 -33 16 -25 3 3 -5 -17 -4 -46 3 -62 13 -81 40 -21 30 21 -4 47 -8 58
-10z m-6890 -53 c-2 -14 -1 -30 2 -35 10 -15 10 -76 1 -82 -13 -8 -25 37 -23
91 3 79 4 82 14 66 5 -8 8 -26 6 -40z m8852 -43 c-3 -8 -6 -5 -6 6 -1 11 2 17
5 13 3 -3 4 -12 1 -19z m-2032 -68 c3 -5 2 -10 -4 -10 -5 0 -13 5 -16 10 -3 6
-2 10 4 10 5 0 13 -4 16 -10z m2210 -79 c-3 -5 -1 -12 5 -16 5 -3 10 -1 10 6
0 7 3 10 6 6 3 -3 3 -11 -1 -17 -5 -8 -11 -8 -21 1 -17 14 -18 29 -3 29 5 0 8
-4 4 -9z m149 -2 c-2 -4 3 -9 10 -12 8 -3 16 -1 19 6 2 7 6 5 9 -4 5 -12 -1
-15 -21 -14 -14 1 -34 6 -45 10 -10 4 -21 4 -25 -1 -11 -16 -38 -15 -45 1 -3
8 -1 15 4 15 6 0 10 -6 10 -12 0 -9 4 -8 10 2 5 8 10 11 10 7 0 -4 7 -4 15 0
18 10 55 12 49 2z m88 -6 c-6 -3 -10 -8 -8 -12 3 -4 -1 -8 -9 -8 -8 0 -16 6
-19 12 -3 8 5 12 22 12 15 0 21 -2 14 -4z m794 -30 c-3 -4 -6 -1 -6 7 0 10 -3
10 -15 0 -10 -9 -15 -9 -15 -1 0 6 -5 11 -11 11 -5 0 -7 -4 -4 -10 3 -5 1 -10
-4 -10 -6 0 -11 5 -11 11 0 8 -6 7 -17 -2 -14 -12 -16 -12 -11 1 3 10 17 15
41 14 22 -1 37 3 37 10 0 6 5 3 11 -7 6 -10 8 -21 5 -24z m41 16 c-6 -10 -16
-15 -21 -12 -6 4 -5 8 2 11 7 2 10 7 8 11 -3 4 1 8 8 8 11 0 12 -4 3 -18z m59
-7 c-17 -16 -18 -16 -5 5 7 12 15 20 18 17 3 -2 -3 -12 -13 -22z m34 -2 c0 -5
-5 -10 -11 -10 -5 0 -7 5 -4 10 3 6 8 10 11 10 2 0 4 -4 4 -10z m-4633 -16
c-3 -3 -12 -4 -19 -1 -8 3 -5 6 6 6 11 1 17 -2 13 -5z m4495 -10 c186 -3 348
-7 360 -9 13 -2 102 -6 198 -9 180 -7 417 -22 505 -32 76 -9 185 -35 185 -44
0 -10 -25 -20 -51 -20 -21 0 -26 -26 -6 -33 7 -2 8 -8 3 -13 -5 -5 -10 -5 -13
1 -13 35 -18 36 -109 21 -80 -14 -349 -51 -559 -77 -44 -5 -96 -12 -115 -14
-72 -9 -433 -45 -650 -65 -388 -34 -442 -39 -555 -45 -60 -4 -123 -8 -140 -11
-163 -22 -925 -55 -925 -41 0 4 34 59 76 121 47 70 73 119 69 127 -5 7 -4 10
3 5 6 -4 33 27 64 74 l53 80 635 -5 c349 -3 787 -7 972 -11z m1664 -41 c-3 -7
1 -10 10 -6 13 5 18 -7 15 -36 -2 -7 2 -11 7 -7 5 3 9 -1 9 -8 0 -8 -7 -13
-16 -11 -10 1 -15 10 -13 21 2 11 1 16 -3 12 -11 -10 -57 40 -49 54 5 8 2 9
-9 5 -10 -3 -25 -3 -34 0 -15 6 -14 8 7 13 29 8 83 -18 76 -37z m-6095 5 c27
-18 49 -36 49 -40 0 -5 7 -8 15 -8 8 0 15 -4 15 -10 0 -5 7 -10 15 -10 18 0
20 -16 2 -23 -14 -5 -50 17 -41 25 3 3 -6 8 -20 12 -17 4 -23 11 -20 21 4 8 1
15 -5 15 -6 0 -11 -4 -11 -10 0 -5 -7 -7 -16 -3 -8 3 -13 12 -10 19 3 8 0 13
-7 11 -7 -1 -11 4 -9 11 1 6 -2 12 -8 12 -5 0 -10 -5 -10 -12 0 -6 -3 -9 -6
-5 -6 6 3 27 12 27 3 0 27 -15 55 -32z m5629 2 c0 -5 -4 -10 -10 -10 -5 0 -10
5 -10 10 0 6 5 10 10 10 6 0 10 -4 10 -10z m-6565 -78 c-3 -3 -11 0 -18 7 -9
10 -8 11 6 5 10 -3 15 -9 12 -12z m3625 -2 c0 -5 -2 -10 -4 -10 -3 0 -8 5 -11
10 -3 6 -1 10 4 10 6 0 11 -4 11 -10z m-3600 -26 c0 -8 -5 -12 -10 -9 -6 4 -8
11 -5 16 9 14 15 11 15 -7z m3576 -11 c-10 -10 -19 5 -10 18 6 11 8 11 12 0 2
-7 1 -15 -2 -18z m2928 -9 c4 -11 2 -12 -14 -1 -11 6 -20 15 -20 19 0 12 28
-3 34 -18z m-24 -14 c0 -8 -35 -5 -65 5 -19 7 -19 7 -2 -6 16 -13 13 -14 -28
-15 -43 0 -56 8 -35 21 6 3 10 1 10 -4 0 -6 5 -11 11 -11 5 0 7 4 4 10 -7 12
39 24 60 16 8 -3 15 0 15 6 0 7 5 6 15 -2 8 -7 15 -16 15 -20z m-620 -62 c0
-5 4 -6 10 -3 6 3 7 -1 4 -9 -7 -17 -44 -22 -44 -6 0 6 -4 10 -10 10 -5 0 -7
-6 -4 -13 3 -8 -1 -14 -8 -15 -7 0 -26 -3 -43 -7 -45 -10 -165 -12 -171 -4 -2
5 4 13 15 18 27 15 34 14 27 -5 -3 -8 -2 -12 4 -9 6 3 10 14 11 23 0 10 3 12
5 5 3 -7 12 -9 21 -6 10 4 14 2 9 -5 -3 -6 -2 -14 4 -17 6 -4 10 -3 9 2 -5 27
1 35 16 23 11 -9 15 -9 15 -1 0 7 5 9 10 6 6 -3 10 -2 10 3 0 5 13 8 30 7 16
-1 34 1 40 5 16 10 40 8 40 -2z m-4395 -57 c3 -5 2 -12 -3 -15 -5 -3 -9 1 -9
9 0 17 3 19 12 6z m255 -46 c11 -13 10 -14 -5 -9 -13 5 -16 4 -11 -4 4 -7 2
-12 -3 -12 -13 0 -13 3 -5 24 8 20 9 20 24 1z m3238 -20 c-11 -11 -37 7 -31
22 5 13 8 13 21 -1 9 -9 13 -18 10 -21z m46 19 c6 -15 4 -15 -11 -3 -9 8 -14
9 -10 2 4 -6 3 -14 -3 -18 -5 -3 -10 -4 -10 -1 0 2 -3 11 -6 20 -4 11 0 16 14
16 11 0 23 -7 26 -16z m-314 -37 c0 -9 -3 -8 -9 1 -4 7 -12 12 -17 11 -18 -3
-25 1 -19 11 8 13 45 -6 45 -23z m30 3 c0 -5 -4 -10 -10 -10 -5 0 -10 5 -10
10 0 6 5 10 10 10 6 0 10 -4 10 -10z m70 0 c-18 -12 -30 -13 -30 -2 0 4 10 9
22 9 18 2 20 0 8 -7z m-9494 -45 c0 -19 -3 -32 -8 -29 -5 3 -7 21 -6 39 3 43
13 35 14 -10z m524 35 c0 -5 -2 -10 -4 -10 -3 0 -8 5 -11 10 -3 6 -1 10 4 10
6 0 11 -4 11 -10z m7725 -37 c11 1 23 6 27 12 4 5 6 0 5 -13 -1 -21 -17 -32
-17 -12 0 5 -10 9 -21 7 -12 -1 -24 5 -26 13 -3 10 -2 11 4 3 5 -6 17 -11 28
-10z m318 2 c4 -8 3 -16 -1 -19 -4 -3 -9 4 -9 15 -2 23 3 25 10 4z m-260 -10
c-3 -9 -8 -14 -10 -11 -3 3 -2 9 2 15 9 16 15 13 8 -4z m37 11 c0 -3 -4 -8
-10 -11 -5 -3 -10 -1 -10 4 0 6 5 11 10 11 6 0 10 -2 10 -4z m-3289 -63 c8 -8
8 -13 0 -18 -6 -3 -11 -3 -10 2 3 19 -2 27 -10 15 -6 -11 -10 -10 -19 1 -9 11
-8 13 8 12 11 -1 25 -6 31 -12z m20 -36 c-10 -9 -11 -8 -5 6 3 10 9 15 12 12
3 -3 0 -11 -7 -18z m6344 -27 c-3 -5 -10 -10 -16 -10 -5 0 -9 5 -9 10 0 6 7
10 16 10 8 0 12 -4 9 -10z m-20 -29 c-6 -5 -25 10 -25 20 0 5 6 4 14 -3 8 -7
12 -15 11 -17z m-11388 -16 c0 -8 -4 -12 -9 -9 -5 3 -6 10 -3 15 9 13 12 11
12 -6z m0 -95 c-1 -51 -10 -66 -20 -30 -3 11 -1 18 4 14 5 -3 8 3 7 13 -2 24
1 53 6 53 1 0 3 -22 3 -50z m10789 -16 c-3 -8 -2 -12 4 -9 6 3 10 2 10 -4 0
-5 -8 -9 -17 -9 -10 0 -27 -3 -37 -7 -14 -6 -17 -5 -11 4 5 9 0 8 -16 -2 -29
-18 -93 -31 -84 -17 3 6 -1 7 -9 4 -24 -9 -19 14 5 27 16 8 20 8 14 -1 -5 -8
0 -7 15 2 18 10 24 10 27 1 3 -7 9 -13 14 -13 5 0 8 6 7 13 -2 7 9 13 26 15
21 3 26 0 22 -10 -4 -7 -1 -5 6 5 16 21 32 23 24 1z m-5271 -54 c3 -5 11 -7
18 -5 17 6 41 -10 33 -23 -3 -6 -12 -9 -19 -8 -15 2 -61 46 -48 46 6 0 12 -4
16 -10z m4625 -45 c0 -2 -7 -1 -17 2 -11 5 -14 3 -8 -6 6 -10 3 -11 -14 -2
-11 7 -21 14 -21 17 0 3 5 2 10 -1 6 -3 10 -1 10 5 0 8 6 8 20 0 11 -6 20 -13
20 -15z m-4550 6 c0 -6 -4 -12 -8 -15 -5 -3 -9 1 -9 9 0 8 4 15 9 15 4 0 8 -4
8 -9z m160 -33 c0 -13 -23 -5 -28 10 -2 7 2 10 12 6 9 -3 16 -11 16 -16z m51
-7 c4 -1 9 -10 12 -21 5 -18 4 -18 -24 2 -34 25 -35 27 -11 23 9 -2 20 -4 23
-4z m-5631 -25 c0 -6 5 -4 10 4 5 8 10 10 10 4 0 -18 -13 -24 -27 -13 -9 9
-13 8 -13 0 0 -6 -5 -11 -11 -11 -5 0 -7 5 -4 10 3 6 0 10 -7 10 -10 0 -10 2
1 9 17 11 41 3 41 -13z m155 4 c3 -5 1 -10 -4 -10 -6 0 -11 5 -11 10 0 6 2 10
4 10 3 0 8 -4 11 -10z m5531 -4 c15 -16 18 -26 6 -26 -4 0 -13 9 -20 20 -14
23 -7 26 14 6z m3438 -2 c3 -8 2 -12 -4 -9 -6 3 -10 10 -10 16 0 14 7 11 14
-7z m-150 -28 c-3 -9 -10 -13 -15 -10 -5 3 -3 11 4 19 15 16 19 13 11 -9z
m-2731 -45 c3 -12 -3 -17 -22 -18 -14 -1 -20 1 -13 4 6 2 12 9 12 14 0 6 -6 9
-12 8 -7 -1 -20 -1 -28 0 -12 1 -12 3 -2 10 20 12 60 1 65 -18z m1357 -13 c0
-10 -4 -17 -9 -13 -5 3 -12 1 -16 -5 -12 -19 -26 -11 -15 9 16 30 12 36 -10
16 -23 -21 -27 -14 -5 8 19 20 55 10 55 -15z m552 14 c3 8 6 7 10 -3 4 -11 -3
-15 -31 -16 -20 0 -30 2 -23 4 6 3 9 9 6 15 -4 6 1 6 14 -1 15 -8 21 -8 24 1z
m-68 -10 c3 -5 -1 -9 -9 -9 -8 0 -15 4 -15 9 0 4 4 8 9 8 6 0 12 -4 15 -8z
m130 -1 c-9 -9 -34 -9 -34 -1 0 5 9 8 20 7 10 -1 17 -3 14 -6z m46 5 c0 -2 -7
-7 -16 -10 -8 -3 -12 -2 -9 4 6 10 25 14 25 6z m-769 -26 c6 0 7 5 4 10 -8 14
16 8 32 -7 18 -16 16 -28 -2 -13 -8 7 -15 9 -15 4 0 -5 -11 -9 -23 -9 -19 0
-23 4 -19 20 3 11 7 14 10 7 2 -6 8 -12 13 -12z m168 -4 c-12 -10 -59 -15 -59
-6 0 5 14 10 32 10 17 0 29 -2 27 -4z"/>
<path d="M8215 13150 c3 -5 8 -10 11 -10 2 0 4 5 4 10 0 6 -5 10 -11 10 -5 0
-7 -4 -4 -10z"/>
<path d="M7065 13710 c-3 -5 -1 -10 4 -10 6 0 11 5 11 10 0 6 -2 10 -4 10 -3
0 -8 -4 -11 -10z"/>
<path d="M7175 12850 c4 -6 11 -8 16 -5 14 9 11 15 -7 15 -8 0 -12 -5 -9 -10z"/>
<path d="M8735 12230 c3 -5 8 -10 11 -10 2 0 4 5 4 10 0 6 -5 10 -11 10 -5 0
-7 -4 -4 -10z"/>
<path d="M7880 10561 c0 -5 7 -11 15 -15 8 -3 15 -1 15 3 0 5 -7 11 -15 15 -8
3 -15 1 -15 -3z"/>
<path d="M7951 10547 c2 -1 13 -9 24 -17 19 -14 19 -14 6 3 -7 9 -18 17 -24
17 -6 0 -8 -1 -6 -3z"/>
<path d="M11376 6472 c-3 -6 -1 -14 5 -17 14 -9 20 -2 10 14 -6 8 -11 9 -15 3z"/>
<path d="M11410 6451 c0 -9 30 -24 36 -18 2 1 -6 8 -16 15 -11 7 -20 8 -20 3z"/>
<path d="M7905 9790 c3 -5 8 -10 11 -10 2 0 4 5 4 10 0 6 -5 10 -11 10 -5 0
-7 -4 -4 -10z"/>
<path d="M10000 8231 c0 -6 4 -13 10 -16 6 -3 7 1 4 9 -7 18 -14 21 -14 7z"/>
<path d="M15707 5789 c7 -7 15 -10 18 -7 3 3 -2 9 -12 12 -14 6 -15 5 -6 -5z"/>
<path d="M10710 5259 c0 -5 5 -7 10 -4 6 3 10 8 10 11 0 2 -4 4 -10 4 -5 0
-10 -5 -10 -11z"/>
<path d="M11400 13789 c-177 -38 -230 -53 -230 -65 0 -7 -4 -16 -10 -19 -6 -3
-7 1 -3 10 8 22 11 23 -462 -80 -115 -25 -223 -48 -238 -52 -23 -5 -28 -10
-23 -27 5 -19 4 -19 -8 -4 -10 13 -21 16 -50 11 -41 -6 -55 -20 -32 -29 25 -9
19 -21 -15 -33 -41 -14 -42 -14 -35 7 6 16 5 16 -8 -1 -18 -23 -56 -31 -56
-12 0 14 24 32 45 34 19 2 46 13 43 17 -5 5 -188 -32 -458 -93 -113 -25 -239
-53 -280 -62 -41 -10 -70 -20 -64 -24 14 -8 46 -2 139 27 48 15 73 13 46 -3
-7 -5 -12 -12 -11 -17 1 -5 -4 -10 -11 -13 -6 -2 -9 1 -5 7 4 6 -2 10 -13 9
-14 -1 -17 -5 -10 -13 7 -8 5 -11 -8 -10 -10 0 -20 4 -23 7 -3 4 -13 -3 -22
-15 l-16 -23 111 24 c95 20 245 52 547 119 30 6 107 23 170 37 63 14 174 38
245 52 72 14 280 60 463 101 183 40 335 74 337 74 2 0 9 -25 15 -55 11 -53 12
-55 41 -50 23 4 29 2 30 -12 0 -10 2 -26 4 -35 2 -10 -1 -18 -7 -18 -6 0 -8
-7 -5 -15 4 -8 2 -17 -2 -20 -5 -2 -11 8 -14 23 -3 15 -1 29 4 30 5 2 9 9 9
15 0 5 -3 7 -7 4 -3 -4 -12 -2 -20 4 -7 6 -13 8 -13 3 0 -7 33 -168 52 -255 3
-12 -58 -27 -332 -84 -69 -14 -172 -37 -230 -50 -115 -27 -361 -81 -565 -124
-71 -16 -193 -43 -270 -60 -77 -18 -219 -48 -315 -67 -96 -19 -185 -39 -196
-44 -14 -5 -23 -20 -26 -40 l-5 -32 41 6 c41 7 297 63 806 176 146 32 299 65
340 74 113 22 447 94 515 111 123 29 247 55 265 55 11 0 24 9 30 19 13 25 13
31 0 31 -5 0 -10 -7 -10 -15 0 -8 -5 -15 -11 -15 -6 0 -8 7 -5 16 4 9 1 23 -5
31 -17 20 -4 27 15 8 15 -15 16 -15 16 3 0 41 -13 112 -21 112 -4 0 -6 -10 -3
-23 2 -16 -1 -24 -11 -24 -23 0 -25 23 -4 45 10 12 19 25 19 29 0 4 -14 75
-32 156 -21 100 -37 151 -47 156 -9 5 -54 0 -101 -10z m114 -57 c3 -5 -1 -9
-9 -9 -8 0 -12 4 -9 9 3 4 7 8 9 8 2 0 6 -4 9 -8z m-249 -13 c15 0 16 -2 6 -9
-8 -4 -20 -6 -28 -3 -7 3 -13 1 -13 -5 0 -5 -11 -9 -25 -9 -28 0 -30 2 -12 22
7 9 20 12 32 9 11 -3 29 -6 40 -5z m265 -48 c5 -17 6 -31 2 -32 -4 0 -15 -2
-24 -4 -12 -2 -18 3 -18 16 0 10 5 19 10 19 6 0 9 3 9 8 -3 16 1 35 6 30 3 -3
10 -19 15 -37z m-1037 -112 c4 -17 3 -19 -6 -10 -17 17 -27 13 -20 -6 5 -15 4
-16 -8 -5 -12 11 -11 15 5 28 25 18 23 18 29 -7z m-103 -19 c0 -5 -2 -10 -4
-10 -3 0 -8 5 -11 10 -3 6 -1 10 4 10 6 0 11 -4 11 -10z m-167 -37 c-7 -18
-22 -33 -35 -33 -3 0 -1 11 5 25 14 28 40 35 30 8z m-33 -3 c0 -5 -2 -10 -4
-10 -3 0 -8 5 -11 10 -3 6 -1 10 4 10 6 0 11 -4 11 -10z m-46 -12 c-3 -4 -9
-8 -15 -8 -5 0 -9 4 -9 8 0 5 7 9 15 9 8 0 12 -4 9 -9z m18 -20 c-7 -7 -12 -8
-12 -2 0 14 12 26 19 19 2 -3 -1 -11 -7 -17z m-441 -85 c-12 -20 -14 -14 -5
12 4 9 9 14 11 11 3 -2 0 -13 -6 -23z m1846 13 c-4 -10 -1 -13 9 -9 7 3 14 0
14 -5 0 -20 -18 -22 -35 -6 -13 14 -14 19 -3 25 18 12 21 11 15 -5z m3 -76 c0
-5 -3 -9 -7 -9 -20 3 -27 -2 -13 -11 8 -5 12 -11 9 -14 -10 -11 -29 11 -23 27
7 18 34 24 34 7z m-678 -162 c-3 -14 -7 -16 -12 -7 -5 6 -15 9 -24 6 -9 -4
-16 -2 -16 2 0 10 14 16 40 18 13 1 16 -4 12 -19z m-202 -58 c0 -5 -2 -10 -4
-10 -3 0 -8 5 -11 10 -3 6 -1 10 4 10 6 0 11 -4 11 -10z m-563 -102 c2 6 9 12
14 12 6 0 7 -5 3 -11 -4 -8 1 -9 17 -4 13 4 21 4 18 1 -4 -4 -30 -13 -59 -21
-47 -13 -51 -12 -46 3 5 15 4 15 -6 2 -7 -8 -24 -17 -38 -18 -14 -2 -31 -9
-37 -14 -9 -7 -18 -7 -28 2 -8 7 -22 10 -30 6 -8 -3 -15 -1 -15 4 0 6 5 11 10
11 6 1 16 2 23 3 6 1 20 -2 31 -7 13 -6 16 -6 12 2 -4 6 0 14 9 18 10 3 21 0
26 -8 8 -13 13 -5 10 15 -1 4 12 6 29 4 17 -3 30 0 30 6 0 6 5 4 11 -4 8 -11
12 -12 16 -2z m-192 -52 c8 4 15 2 15 -3 0 -5 -9 -9 -20 -10 -11 -1 -20 2 -20
8 0 5 -4 9 -10 9 -5 0 -10 -7 -10 -15 0 -8 -4 -15 -9 -15 -14 0 -7 30 10 40 9
6 16 4 22 -5 4 -8 14 -12 22 -9z"/>
<path d="M9547 13334 c6 -15 23 -19 23 -5 0 5 -7 11 -14 14 -10 4 -13 1 -9 -9z"/>
<path d="M9135 13295 c-33 -7 -73 -15 -90 -18 -102 -16 -122 -25 -95 -42 6 -3
10 0 10 7 0 9 3 9 10 -2 6 -9 10 -11 10 -3 0 7 7 10 15 6 14 -5 14 -7 -2 -18
-10 -7 -25 -12 -33 -13 -43 -2 -125 -14 -133 -19 -6 -3 -7 -1 -3 5 4 7 2 12
-3 12 -6 0 -11 7 -11 16 0 8 -4 13 -9 10 -4 -3 -32 -9 -62 -12 -83 -10 -122
-27 -147 -65 -13 -18 -19 -35 -14 -37 5 -1 85 13 178 33 93 20 228 47 299 60
72 14 161 32 198 41 64 15 67 17 48 31 -30 20 -97 24 -166 8z"/>
<path d="M8873 13247 c-52 -10 -64 -19 -43 -32 6 -3 10 0 10 7 0 9 3 9 10 -2
8 -13 11 -13 19 -1 5 7 14 10 20 7 6 -4 11 -2 11 3 0 6 5 11 11 11 5 0 8 -4 5
-8 -3 -5 1 -9 8 -9 8 0 11 8 8 19 -2 10 -5 17 -6 16 0 0 -25 -6 -53 -11z"/>
<path d="M9816 13208 c-21 -29 -20 -41 2 -61 23 -21 46 -22 62 -2 14 16 0 21
-16 5 -5 -5 -15 -5 -23 -1 -10 7 -11 13 -1 32 11 23 10 23 -4 5 -21 -26 -21
-7 0 22 8 12 11 22 5 22 -5 0 -17 -10 -25 -22z"/>
<path d="M9874 13204 c9 -8 16 -20 16 -26 0 -6 3 -9 6 -5 10 10 -7 47 -22 47
-13 0 -13 -2 0 -16z"/>
<path d="M9330 12861 c0 -16 28 -20 40 -5 8 9 9 14 2 14 -6 0 -13 -6 -15 -12
-4 -10 -6 -10 -6 0 -1 14 -21 17 -21 3z"/>
<path d="M9263 12849 c-18 -5 -33 -14 -33 -20 0 -6 7 -6 19 1 11 5 31 10 45
10 14 0 26 5 26 10 0 12 -13 12 -57 -1z"/>
<path d="M9090 12814 c-184 -34 -424 -95 -409 -104 7 -5 19 -6 27 -2 10 3 13
1 8 -6 -11 -19 68 -15 163 8 47 12 119 27 160 36 42 8 83 18 91 21 8 3 21 7
27 7 7 1 12 6 12 11 -1 6 -5 9 -11 7 -5 -1 -7 2 -3 8 3 6 10 8 13 6 4 -2 19 4
32 15 14 10 23 18 20 18 -3 -1 -61 -12 -130 -25z m-200 -74 c-54 -20 -150 -38
-156 -29 -3 5 1 9 8 10 26 1 69 10 89 17 11 4 34 8 52 9 30 2 31 1 7 -7z"/>
<path d="M15000 6253 c14 -3 31 -10 39 -16 12 -9 13 -9 7 1 -6 10 7 12 66 7
40 -3 101 -7 135 -8 37 -1 59 -5 54 -10 -5 -5 -7 -16 -4 -25 4 -10 2 -13 -5
-8 -7 4 -12 3 -12 -3 0 -5 8 -9 18 -9 9 1 62 -2 117 -6 133 -8 244 -15 395
-21 234 -11 291 -15 300 -20 4 -3 6 4 3 14 -4 16 -11 19 -37 15 -17 -3 -42 -5
-56 -4 -14 1 -37 3 -52 4 -14 0 -24 4 -21 8 7 12 -12 9 -24 -3 -7 -7 -15 -6
-25 5 -9 8 -19 12 -22 8 -4 -3 -4 1 -1 11 6 14 9 15 22 2 18 -19 29 -20 14 -1
-9 11 -9 15 1 19 16 5 -104 15 -347 27 -240 12 -598 20 -565 13z m317 -55 c-3
-8 -6 -5 -6 6 -1 11 2 17 5 13 3 -3 4 -12 1 -19z"/>
<path d="M14226 6225 c-3 -8 -1 -15 4 -15 6 0 10 7 10 15 0 8 -2 15 -4 15 -2
0 -6 -7 -10 -15z"/>
<path d="M14185 6220 c-3 -5 1 -10 10 -10 9 0 13 5 10 10 -3 6 -8 10 -10 10
-2 0 -7 -4 -10 -10z"/>
<path d="M15268 6220 c-5 -15 -104 -23 -129 -10 -13 7 -25 8 -32 2 -10 -8 -62
-9 -92 -2 -19 5 -35 0 -35 -10 0 -6 55 -10 144 -10 124 0 145 2 150 16 4 9 5
19 2 21 -2 2 -6 -1 -8 -7z"/>
<path d="M15950 6201 c0 -5 18 -7 41 -4 27 4 44 2 49 -6 5 -10 9 -9 13 3 5 13
-3 16 -48 16 -30 0 -55 -4 -55 -9z"/>
<path d="M16071 6194 c0 -11 3 -14 6 -6 3 7 2 16 -1 19 -3 4 -6 -2 -5 -13z"/>
<path d="M16090 6196 c0 -8 51 -13 56 -5 3 5 -9 9 -25 9 -17 0 -31 -2 -31 -4z"/>
<path d="M16196 6173 c-6 -14 -5 -15 5 -6 7 7 10 15 7 18 -3 3 -9 -2 -12 -12z"/>
<path d="M16041 6054 c8 -10 15 -12 17 -5 2 6 8 9 13 5 5 -3 9 0 9 5 0 6 -12
11 -26 11 -23 0 -25 -2 -13 -16z"/>
<path d="M15133 5205 c0 -8 4 -15 9 -15 4 0 8 7 8 15 0 8 -4 15 -8 15 -5 0 -9
-7 -9 -15z"/>
<path d="M15080 5198 c0 -4 9 -8 20 -8 11 0 20 4 20 8 0 4 -9 8 -20 8 -11 0
-20 -4 -20 -8z"/>
<path d="M14350 5180 c0 -12 8 -12 35 0 18 8 17 9 -7 9 -16 1 -28 -3 -28 -9z"/>
</g>
</svg>
